<?xml version="1.0" encoding="UTF-8"?>
<svg xmlns="http://www.w3.org/2000/svg" xmlns:xlink="http://www.w3.org/1999/xlink" width="468pt" height="289pt" viewBox="0 0 468 289" version="1.1">
<defs>
<g>
<symbol overflow="visible" id="001fd60f-b7db-4001-ba0e-79242505b5de">
<path style="stroke:none;" d="M 0.453125 0 L 0.453125 -10.171875 L 8.53125 -10.171875 L 8.53125 0 Z M 7.25 -1.265625 L 7.25 -8.890625 L 1.734375 -8.890625 L 1.734375 -1.265625 Z M 7.25 -1.265625 "/>
</symbol>
<symbol overflow="visible" id="7efb82fe-2503-47a7-9e38-15070f60df82">
<path style="stroke:none;" d="M 3.828125 -9.90625 C 5.109375 -9.90625 6.035156 -9.378906 6.609375 -8.328125 C 7.054688 -7.503906 7.28125 -6.382812 7.28125 -4.96875 C 7.28125 -3.625 7.078125 -2.507812 6.671875 -1.625 C 6.097656 -0.363281 5.148438 0.265625 3.828125 0.265625 C 2.640625 0.265625 1.753906 -0.25 1.171875 -1.28125 C 0.679688 -2.144531 0.4375 -3.300781 0.4375 -4.75 C 0.4375 -5.875 0.582031 -6.84375 0.875 -7.65625 C 1.425781 -9.15625 2.410156 -9.90625 3.828125 -9.90625 Z M 3.8125 -0.859375 C 4.457031 -0.859375 4.972656 -1.144531 5.359375 -1.71875 C 5.742188 -2.289062 5.9375 -3.359375 5.9375 -4.921875 C 5.9375 -6.046875 5.796875 -6.96875 5.515625 -7.6875 C 5.242188 -8.414062 4.707031 -8.78125 3.90625 -8.78125 C 3.175781 -8.78125 2.640625 -8.4375 2.296875 -7.75 C 1.960938 -7.0625 1.796875 -6.046875 1.796875 -4.703125 C 1.796875 -3.691406 1.90625 -2.878906 2.125 -2.265625 C 2.445312 -1.328125 3.007812 -0.859375 3.8125 -0.859375 Z M 3.8125 -0.859375 "/>
</symbol>
<symbol overflow="visible" id="331078e1-a04c-4ea4-8ab8-6949c64723f5">
<path style="stroke:none;" d="M 1.21875 -1.515625 L 2.65625 -1.515625 L 2.65625 0 L 1.21875 0 Z M 1.21875 -1.515625 "/>
</symbol>
<symbol overflow="visible" id="ba48ca0b-6886-41ed-9e42-0c9b25c802f6">
<path style="stroke:none;" d="M 1.359375 -7.015625 L 1.359375 -7.96875 C 2.253906 -8.0625 2.878906 -8.207031 3.234375 -8.40625 C 3.585938 -8.613281 3.851562 -9.101562 4.03125 -9.875 L 5.015625 -9.875 L 5.015625 0 L 3.6875 0 L 3.6875 -7.015625 Z M 1.359375 -7.015625 "/>
</symbol>
<symbol overflow="visible" id="0c98ddc7-bfff-4852-ba52-8873fa13120a">
<path style="stroke:none;" d="M 3.6875 0.265625 C 2.507812 0.265625 1.65625 -0.0507812 1.125 -0.6875 C 0.601562 -1.332031 0.34375 -2.117188 0.34375 -3.046875 L 1.640625 -3.046875 C 1.691406 -2.398438 1.8125 -1.929688 2 -1.640625 C 2.320312 -1.117188 2.90625 -0.859375 3.75 -0.859375 C 4.40625 -0.859375 4.929688 -1.035156 5.328125 -1.390625 C 5.722656 -1.742188 5.921875 -2.195312 5.921875 -2.75 C 5.921875 -3.425781 5.710938 -3.898438 5.296875 -4.171875 C 4.878906 -4.453125 4.300781 -4.59375 3.5625 -4.59375 C 3.476562 -4.59375 3.390625 -4.585938 3.296875 -4.578125 C 3.210938 -4.578125 3.128906 -4.578125 3.046875 -4.578125 L 3.046875 -5.671875 C 3.171875 -5.660156 3.273438 -5.648438 3.359375 -5.640625 C 3.453125 -5.640625 3.550781 -5.640625 3.65625 -5.640625 C 4.125 -5.640625 4.503906 -5.710938 4.796875 -5.859375 C 5.328125 -6.117188 5.59375 -6.582031 5.59375 -7.25 C 5.59375 -7.738281 5.414062 -8.113281 5.0625 -8.375 C 4.71875 -8.644531 4.3125 -8.78125 3.84375 -8.78125 C 3.007812 -8.78125 2.4375 -8.503906 2.125 -7.953125 C 1.945312 -7.648438 1.84375 -7.21875 1.8125 -6.65625 L 0.59375 -6.65625 C 0.59375 -7.394531 0.738281 -8.023438 1.03125 -8.546875 C 1.539062 -9.460938 2.429688 -9.921875 3.703125 -9.921875 C 4.710938 -9.921875 5.492188 -9.695312 6.046875 -9.25 C 6.609375 -8.800781 6.890625 -8.148438 6.890625 -7.296875 C 6.890625 -6.679688 6.722656 -6.1875 6.390625 -5.8125 C 6.191406 -5.570312 5.929688 -5.390625 5.609375 -5.265625 C 6.128906 -5.117188 6.535156 -4.835938 6.828125 -4.421875 C 7.117188 -4.015625 7.265625 -3.519531 7.265625 -2.9375 C 7.265625 -1.988281 6.953125 -1.21875 6.328125 -0.625 C 5.703125 -0.03125 4.820312 0.265625 3.6875 0.265625 Z M 3.6875 0.265625 "/>
</symbol>
<symbol overflow="visible" id="6dae095b-f692-4675-a08b-422b3101f279">
<path style="stroke:none;" d="M 4.140625 -9.953125 C 5.253906 -9.953125 6.023438 -9.664062 6.453125 -9.09375 C 6.890625 -8.519531 7.109375 -7.925781 7.109375 -7.3125 L 5.875 -7.3125 C 5.800781 -7.707031 5.6875 -8.015625 5.53125 -8.234375 C 5.226562 -8.648438 4.773438 -8.859375 4.171875 -8.859375 C 3.472656 -8.859375 2.914062 -8.535156 2.5 -7.890625 C 2.09375 -7.242188 1.863281 -6.320312 1.8125 -5.125 C 2.101562 -5.539062 2.46875 -5.851562 2.90625 -6.0625 C 3.300781 -6.25 3.742188 -6.34375 4.234375 -6.34375 C 5.054688 -6.34375 5.773438 -6.078125 6.390625 -5.546875 C 7.015625 -5.015625 7.328125 -4.222656 7.328125 -3.171875 C 7.328125 -2.273438 7.035156 -1.476562 6.453125 -0.78125 C 5.867188 -0.09375 5.03125 0.25 3.9375 0.25 C 3.007812 0.25 2.207031 -0.0976562 1.53125 -0.796875 C 0.863281 -1.503906 0.53125 -2.691406 0.53125 -4.359375 C 0.53125 -5.585938 0.679688 -6.628906 0.984375 -7.484375 C 1.554688 -9.128906 2.609375 -9.953125 4.140625 -9.953125 Z M 4.0625 -0.84375 C 4.707031 -0.84375 5.191406 -1.0625 5.515625 -1.5 C 5.847656 -1.945312 6.015625 -2.472656 6.015625 -3.078125 C 6.015625 -3.578125 5.867188 -4.054688 5.578125 -4.515625 C 5.285156 -4.972656 4.757812 -5.203125 4 -5.203125 C 3.457031 -5.203125 2.984375 -5.023438 2.578125 -4.671875 C 2.179688 -4.316406 1.984375 -3.785156 1.984375 -3.078125 C 1.984375 -2.441406 2.164062 -1.910156 2.53125 -1.484375 C 2.894531 -1.054688 3.40625 -0.84375 4.0625 -0.84375 Z M 4.0625 -0.84375 "/>
</symbol>
<symbol overflow="visible" id="bcfff32c-2db2-42b4-82a1-cc7f985d38c4">
<path style="stroke:none;" d="M 3.859375 -5.75 C 4.398438 -5.75 4.828125 -5.898438 5.140625 -6.203125 C 5.453125 -6.515625 5.609375 -6.882812 5.609375 -7.3125 C 5.609375 -7.6875 5.457031 -8.023438 5.15625 -8.328125 C 4.863281 -8.640625 4.414062 -8.796875 3.8125 -8.796875 C 3.207031 -8.796875 2.769531 -8.640625 2.5 -8.328125 C 2.238281 -8.023438 2.109375 -7.664062 2.109375 -7.25 C 2.109375 -6.78125 2.28125 -6.410156 2.625 -6.140625 C 2.976562 -5.878906 3.390625 -5.75 3.859375 -5.75 Z M 3.9375 -0.84375 C 4.507812 -0.84375 4.984375 -1 5.359375 -1.3125 C 5.742188 -1.625 5.9375 -2.09375 5.9375 -2.71875 C 5.9375 -3.351562 5.738281 -3.835938 5.34375 -4.171875 C 4.957031 -4.503906 4.457031 -4.671875 3.84375 -4.671875 C 3.25 -4.671875 2.757812 -4.5 2.375 -4.15625 C 2 -3.820312 1.8125 -3.351562 1.8125 -2.75 C 1.8125 -2.238281 1.984375 -1.789062 2.328125 -1.40625 C 2.671875 -1.03125 3.207031 -0.84375 3.9375 -0.84375 Z M 2.15625 -5.28125 C 1.8125 -5.425781 1.539062 -5.597656 1.34375 -5.796875 C 0.976562 -6.171875 0.796875 -6.648438 0.796875 -7.234375 C 0.796875 -7.972656 1.0625 -8.609375 1.59375 -9.140625 C 2.132812 -9.671875 2.894531 -9.9375 3.875 -9.9375 C 4.832031 -9.9375 5.578125 -9.6875 6.109375 -9.1875 C 6.648438 -8.6875 6.921875 -8.101562 6.921875 -7.4375 C 6.921875 -6.8125 6.765625 -6.3125 6.453125 -5.9375 C 6.273438 -5.71875 6.003906 -5.503906 5.640625 -5.296875 C 6.046875 -5.109375 6.367188 -4.890625 6.609375 -4.640625 C 7.046875 -4.179688 7.265625 -3.582031 7.265625 -2.84375 C 7.265625 -1.96875 6.972656 -1.226562 6.390625 -0.625 C 5.804688 -0.0195312 4.976562 0.28125 3.90625 0.28125 C 2.9375 0.28125 2.117188 0.0195312 1.453125 -0.5 C 0.785156 -1.019531 0.453125 -1.78125 0.453125 -2.78125 C 0.453125 -3.363281 0.59375 -3.867188 0.875 -4.296875 C 1.164062 -4.722656 1.59375 -5.050781 2.15625 -5.28125 Z M 2.15625 -5.28125 "/>
</symbol>
<symbol overflow="visible" id="91e4cf8d-7f92-42f2-b6cc-7dcf4edb9b2b">
<path style="stroke:none;" d="M 1.875 -2.390625 C 1.914062 -1.703125 2.179688 -1.226562 2.671875 -0.96875 C 2.929688 -0.832031 3.21875 -0.765625 3.53125 -0.765625 C 4.125 -0.765625 4.628906 -1.007812 5.046875 -1.5 C 5.472656 -2 5.773438 -3.007812 5.953125 -4.53125 C 5.671875 -4.09375 5.328125 -3.78125 4.921875 -3.59375 C 4.515625 -3.414062 4.078125 -3.328125 3.609375 -3.328125 C 2.648438 -3.328125 1.890625 -3.625 1.328125 -4.21875 C 0.773438 -4.820312 0.5 -5.59375 0.5 -6.53125 C 0.5 -7.425781 0.773438 -8.210938 1.328125 -8.890625 C 1.878906 -9.578125 2.6875 -9.921875 3.75 -9.921875 C 5.195312 -9.921875 6.195312 -9.269531 6.75 -7.96875 C 7.050781 -7.257812 7.203125 -6.363281 7.203125 -5.28125 C 7.203125 -4.070312 7.019531 -3 6.65625 -2.0625 C 6.050781 -0.5 5.023438 0.28125 3.578125 0.28125 C 2.609375 0.28125 1.875 0.0234375 1.375 -0.484375 C 0.875 -0.992188 0.625 -1.628906 0.625 -2.390625 Z M 3.765625 -4.421875 C 4.265625 -4.421875 4.71875 -4.582031 5.125 -4.90625 C 5.53125 -5.238281 5.734375 -5.8125 5.734375 -6.625 C 5.734375 -7.351562 5.550781 -7.894531 5.1875 -8.25 C 4.820312 -8.601562 4.351562 -8.78125 3.78125 -8.78125 C 3.175781 -8.78125 2.691406 -8.578125 2.328125 -8.171875 C 1.972656 -7.765625 1.796875 -7.222656 1.796875 -6.546875 C 1.796875 -5.898438 1.953125 -5.382812 2.265625 -5 C 2.578125 -4.613281 3.078125 -4.421875 3.765625 -4.421875 Z M 3.765625 -4.421875 "/>
</symbol>
<symbol overflow="visible" id="b140109b-a1f5-4c61-854c-d8e1620a1ac4">
<path style="stroke:none;" d="M 1.75 -2.53125 C 1.832031 -1.8125 2.160156 -1.316406 2.734375 -1.046875 C 3.035156 -0.910156 3.378906 -0.84375 3.765625 -0.84375 C 4.503906 -0.84375 5.050781 -1.078125 5.40625 -1.546875 C 5.757812 -2.015625 5.9375 -2.535156 5.9375 -3.109375 C 5.9375 -3.804688 5.722656 -4.34375 5.296875 -4.71875 C 4.878906 -5.09375 4.375 -5.28125 3.78125 -5.28125 C 3.351562 -5.28125 2.984375 -5.195312 2.671875 -5.03125 C 2.367188 -4.863281 2.109375 -4.632812 1.890625 -4.34375 L 0.8125 -4.40625 L 1.578125 -9.75 L 6.71875 -9.75 L 6.71875 -8.546875 L 2.5 -8.546875 L 2.078125 -5.78125 C 2.304688 -5.957031 2.523438 -6.085938 2.734375 -6.171875 C 3.109375 -6.328125 3.535156 -6.40625 4.015625 -6.40625 C 4.929688 -6.40625 5.703125 -6.113281 6.328125 -5.53125 C 6.960938 -4.945312 7.28125 -4.203125 7.28125 -3.296875 C 7.28125 -2.359375 6.988281 -1.53125 6.40625 -0.8125 C 5.832031 -0.101562 4.910156 0.25 3.640625 0.25 C 2.828125 0.25 2.109375 0.0234375 1.484375 -0.421875 C 0.867188 -0.878906 0.523438 -1.582031 0.453125 -2.53125 Z M 1.75 -2.53125 "/>
</symbol>
<symbol overflow="visible" id="29e9688f-2205-4890-89b6-bbf3314ad40c">
<path style="stroke:none;" d="M 7.40625 -9.75 L 7.40625 -8.65625 C 7.09375 -8.34375 6.671875 -7.800781 6.140625 -7.03125 C 5.609375 -6.269531 5.140625 -5.445312 4.734375 -4.5625 C 4.335938 -3.695312 4.035156 -2.910156 3.828125 -2.203125 C 3.691406 -1.742188 3.519531 -1.007812 3.3125 0 L 1.9375 0 C 2.25 -1.894531 2.9375 -3.773438 4 -5.640625 C 4.632812 -6.742188 5.300781 -7.691406 6 -8.484375 L 0.515625 -8.484375 L 0.515625 -9.75 Z M 7.40625 -9.75 "/>
</symbol>
<symbol overflow="visible" id="0eb62154-d220-412d-942e-2c819609fe87">
<path style="stroke:none;" d="M 0.3125 0 L 0.3125 -6.875 L 5.765625 -6.875 L 5.765625 0 Z M 4.90625 -0.859375 L 4.90625 -6.015625 L 1.171875 -6.015625 L 1.171875 -0.859375 Z M 4.90625 -0.859375 "/>
</symbol>
<symbol overflow="visible" id="5bb544db-96f4-404a-8914-835ca55a2ffb">
<path style="stroke:none;" d="M 5.734375 -6.875 L 5.734375 -6.0625 L 3.421875 -6.0625 L 3.421875 0 L 2.46875 0 L 2.46875 -6.0625 L 0.15625 -6.0625 L 0.15625 -6.875 Z M 5.734375 -6.875 "/>
</symbol>
<symbol overflow="visible" id="681ccb14-e90e-48dd-8c37-472c3a5d7bbb">
<path style="stroke:none;" d="M 0.625 -6.90625 L 1.46875 -6.90625 L 1.46875 -4.34375 C 1.664062 -4.59375 1.84375 -4.769531 2 -4.875 C 2.269531 -5.050781 2.609375 -5.140625 3.015625 -5.140625 C 3.742188 -5.140625 4.238281 -4.882812 4.5 -4.375 C 4.632812 -4.09375 4.703125 -3.707031 4.703125 -3.21875 L 4.703125 0 L 3.84375 0 L 3.84375 -3.15625 C 3.84375 -3.53125 3.796875 -3.800781 3.703125 -3.96875 C 3.546875 -4.25 3.257812 -4.390625 2.84375 -4.390625 C 2.488281 -4.390625 2.171875 -4.265625 1.890625 -4.015625 C 1.609375 -3.773438 1.46875 -3.320312 1.46875 -2.65625 L 1.46875 0 L 0.625 0 Z M 0.625 -6.90625 "/>
</symbol>
<symbol overflow="visible" id="767c7816-1d76-4fe8-b298-f9d131806c3b">
<path style="stroke:none;" d="M 2.703125 -5.125 C 3.054688 -5.125 3.398438 -5.039062 3.734375 -4.875 C 4.078125 -4.707031 4.332031 -4.492188 4.5 -4.234375 C 4.675781 -3.972656 4.789062 -3.675781 4.84375 -3.34375 C 4.894531 -3.113281 4.921875 -2.742188 4.921875 -2.234375 L 1.234375 -2.234375 C 1.253906 -1.722656 1.375 -1.3125 1.59375 -1 C 1.820312 -0.695312 2.171875 -0.546875 2.640625 -0.546875 C 3.085938 -0.546875 3.441406 -0.691406 3.703125 -0.984375 C 3.847656 -1.148438 3.953125 -1.347656 4.015625 -1.578125 L 4.84375 -1.578125 C 4.820312 -1.390625 4.75 -1.179688 4.625 -0.953125 C 4.507812 -0.734375 4.375 -0.550781 4.21875 -0.40625 C 3.957031 -0.15625 3.640625 0.015625 3.265625 0.109375 C 3.054688 0.148438 2.828125 0.171875 2.578125 0.171875 C 1.953125 0.171875 1.421875 -0.0507812 0.984375 -0.5 C 0.554688 -0.957031 0.34375 -1.59375 0.34375 -2.40625 C 0.34375 -3.21875 0.5625 -3.875 1 -4.375 C 1.4375 -4.875 2.003906 -5.125 2.703125 -5.125 Z M 4.046875 -2.90625 C 4.015625 -3.269531 3.9375 -3.5625 3.8125 -3.78125 C 3.582031 -4.1875 3.195312 -4.390625 2.65625 -4.390625 C 2.269531 -4.390625 1.941406 -4.25 1.671875 -3.96875 C 1.410156 -3.695312 1.273438 -3.34375 1.265625 -2.90625 Z M 2.625 -5.140625 Z M 2.625 -5.140625 "/>
</symbol>
<symbol overflow="visible" id="e7c16f18-2d8a-4f81-9f05-6ac0d4c2f2c9">
<path style="stroke:none;" d=""/>
</symbol>
<symbol overflow="visible" id="8d1649f8-f870-4e2c-b810-f481fe3efb6d">
<path style="stroke:none;" d="M 3.3125 -3.96875 C 3.707031 -3.96875 4.015625 -4.023438 4.234375 -4.140625 C 4.578125 -4.304688 4.75 -4.613281 4.75 -5.0625 C 4.75 -5.507812 4.566406 -5.8125 4.203125 -5.96875 C 3.992188 -6.0625 3.6875 -6.109375 3.28125 -6.109375 L 1.625 -6.109375 L 1.625 -3.96875 Z M 3.625 -0.796875 C 4.195312 -0.796875 4.609375 -0.960938 4.859375 -1.296875 C 5.003906 -1.503906 5.078125 -1.753906 5.078125 -2.046875 C 5.078125 -2.546875 4.851562 -2.890625 4.40625 -3.078125 C 4.175781 -3.171875 3.863281 -3.21875 3.46875 -3.21875 L 1.625 -3.21875 L 1.625 -0.796875 Z M 0.703125 -6.875 L 3.65625 -6.875 C 4.46875 -6.875 5.039062 -6.632812 5.375 -6.15625 C 5.582031 -5.875 5.6875 -5.546875 5.6875 -5.171875 C 5.6875 -4.742188 5.5625 -4.390625 5.3125 -4.109375 C 5.1875 -3.960938 5.003906 -3.828125 4.765625 -3.703125 C 5.109375 -3.566406 5.367188 -3.414062 5.546875 -3.25 C 5.859375 -2.945312 6.015625 -2.535156 6.015625 -2.015625 C 6.015625 -1.566406 5.875 -1.164062 5.59375 -0.8125 C 5.175781 -0.269531 4.515625 0 3.609375 0 L 0.703125 0 Z M 0.703125 -6.875 "/>
</symbol>
<symbol overflow="visible" id="eccdb6c1-cbde-4524-8cc2-c727908f7cd0">
<path style="stroke:none;" d="M 2.609375 -0.546875 C 3.171875 -0.546875 3.554688 -0.753906 3.765625 -1.171875 C 3.972656 -1.597656 4.078125 -2.070312 4.078125 -2.59375 C 4.078125 -3.0625 4 -3.441406 3.84375 -3.734375 C 3.601562 -4.191406 3.195312 -4.421875 2.625 -4.421875 C 2.101562 -4.421875 1.722656 -4.222656 1.484375 -3.828125 C 1.253906 -3.441406 1.140625 -2.96875 1.140625 -2.40625 C 1.140625 -1.875 1.253906 -1.429688 1.484375 -1.078125 C 1.722656 -0.722656 2.097656 -0.546875 2.609375 -0.546875 Z M 2.640625 -5.15625 C 3.285156 -5.15625 3.832031 -4.941406 4.28125 -4.515625 C 4.726562 -4.085938 4.953125 -3.453125 4.953125 -2.609375 C 4.953125 -1.804688 4.753906 -1.140625 4.359375 -0.609375 C 3.960938 -0.078125 3.351562 0.1875 2.53125 0.1875 C 1.84375 0.1875 1.296875 -0.046875 0.890625 -0.515625 C 0.484375 -0.984375 0.28125 -1.613281 0.28125 -2.40625 C 0.28125 -3.238281 0.492188 -3.90625 0.921875 -4.40625 C 1.347656 -4.90625 1.921875 -5.15625 2.640625 -5.15625 Z M 2.609375 -5.140625 Z M 2.609375 -5.140625 "/>
</symbol>
<symbol overflow="visible" id="8c520d23-90b6-4da6-a55f-b4bcf81e1aec">
<path style="stroke:none;" d="M 0.59375 -6.875 L 1.40625 -6.875 L 1.40625 -2.890625 L 3.578125 -5.015625 L 4.65625 -5.015625 L 2.734375 -3.140625 L 4.765625 0 L 3.6875 0 L 2.125 -2.53125 L 1.40625 -1.890625 L 1.40625 0 L 0.59375 0 Z M 0.59375 -6.875 "/>
</symbol>
<symbol overflow="visible" id="dee0faf0-bc50-495d-a736-77eaff5cdd66">
<path style="stroke:none;" d="M 0.828125 -5.78125 C 0.835938 -6.132812 0.898438 -6.390625 1.015625 -6.546875 C 1.210938 -6.835938 1.59375 -6.984375 2.15625 -6.984375 C 2.207031 -6.984375 2.257812 -6.976562 2.3125 -6.96875 C 2.375 -6.96875 2.4375 -6.96875 2.5 -6.96875 L 2.5 -6.1875 C 2.414062 -6.195312 2.351562 -6.203125 2.3125 -6.203125 C 2.28125 -6.203125 2.242188 -6.203125 2.203125 -6.203125 C 1.953125 -6.203125 1.800781 -6.132812 1.75 -6 C 1.695312 -5.875 1.671875 -5.539062 1.671875 -5 L 2.5 -5 L 2.5 -4.328125 L 1.65625 -4.328125 L 1.65625 0 L 0.828125 0 L 0.828125 -4.328125 L 0.125 -4.328125 L 0.125 -5 L 0.828125 -5 Z M 0.828125 -5.78125 "/>
</symbol>
<symbol overflow="visible" id="1186fde3-8791-4755-957b-843407b10b5d">
<path style="stroke:none;" d="M 0.703125 -6.875 L 2.046875 -6.875 L 4.015625 -1.0625 L 5.984375 -6.875 L 7.296875 -6.875 L 7.296875 0 L 6.421875 0 L 6.421875 -4.0625 C 6.421875 -4.195312 6.421875 -4.425781 6.421875 -4.75 C 6.429688 -5.082031 6.4375 -5.429688 6.4375 -5.796875 L 4.46875 0 L 3.546875 0 L 1.578125 -5.796875 L 1.578125 -5.59375 C 1.578125 -5.425781 1.578125 -5.171875 1.578125 -4.828125 C 1.585938 -4.484375 1.59375 -4.226562 1.59375 -4.0625 L 1.59375 0 L 0.703125 0 Z M 0.703125 -6.875 "/>
</symbol>
<symbol overflow="visible" id="c3bcca78-6c9b-4e91-b35a-33835924fb8d">
<path style="stroke:none;" d="M 0.640625 -5.015625 L 1.4375 -5.015625 L 1.4375 -4.15625 C 1.507812 -4.320312 1.671875 -4.523438 1.921875 -4.765625 C 2.179688 -5.003906 2.476562 -5.125 2.8125 -5.125 C 2.820312 -5.125 2.847656 -5.125 2.890625 -5.125 C 2.929688 -5.125 2.992188 -5.117188 3.078125 -5.109375 L 3.078125 -4.21875 C 3.023438 -4.226562 2.976562 -4.234375 2.9375 -4.234375 C 2.894531 -4.234375 2.851562 -4.234375 2.8125 -4.234375 C 2.382812 -4.234375 2.054688 -4.097656 1.828125 -3.828125 C 1.597656 -3.554688 1.484375 -3.242188 1.484375 -2.890625 L 1.484375 0 L 0.640625 0 Z M 0.640625 -5.015625 "/>
</symbol>
<symbol overflow="visible" id="6429004c-0197-421a-a839-260abecd64bb">
<path style="stroke:none;" d="M 0.625 -5.015625 L 1.453125 -5.015625 L 1.453125 -4.3125 C 1.648438 -4.550781 1.832031 -4.726562 2 -4.84375 C 2.269531 -5.03125 2.582031 -5.125 2.9375 -5.125 C 3.34375 -5.125 3.664062 -5.023438 3.90625 -4.828125 C 4.039062 -4.722656 4.164062 -4.5625 4.28125 -4.34375 C 4.46875 -4.601562 4.6875 -4.796875 4.9375 -4.921875 C 5.195312 -5.054688 5.484375 -5.125 5.796875 -5.125 C 6.472656 -5.125 6.929688 -4.882812 7.171875 -4.40625 C 7.304688 -4.132812 7.375 -3.78125 7.375 -3.34375 L 7.375 0 L 6.5 0 L 6.5 -3.484375 C 6.5 -3.816406 6.410156 -4.046875 6.234375 -4.171875 C 6.066406 -4.296875 5.863281 -4.359375 5.625 -4.359375 C 5.300781 -4.359375 5.019531 -4.25 4.78125 -4.03125 C 4.539062 -3.8125 4.421875 -3.441406 4.421875 -2.921875 L 4.421875 0 L 3.5625 0 L 3.5625 -3.28125 C 3.5625 -3.613281 3.519531 -3.859375 3.4375 -4.015625 C 3.3125 -4.253906 3.070312 -4.375 2.71875 -4.375 C 2.40625 -4.375 2.117188 -4.25 1.859375 -4 C 1.597656 -3.75 1.46875 -3.300781 1.46875 -2.65625 L 1.46875 0 L 0.625 0 Z M 0.625 -5.015625 "/>
</symbol>
<symbol overflow="visible" id="4984f0e0-cfe3-4489-a0f0-13276ed80271">
<path style="stroke:none;" d="M 0.625 -5.015625 L 1.421875 -5.015625 L 1.421875 -4.3125 C 1.660156 -4.601562 1.910156 -4.8125 2.171875 -4.9375 C 2.441406 -5.0625 2.738281 -5.125 3.0625 -5.125 C 3.769531 -5.125 4.25 -4.878906 4.5 -4.390625 C 4.632812 -4.117188 4.703125 -3.726562 4.703125 -3.21875 L 4.703125 0 L 3.84375 0 L 3.84375 -3.15625 C 3.84375 -3.46875 3.800781 -3.71875 3.71875 -3.90625 C 3.5625 -4.21875 3.289062 -4.375 2.90625 -4.375 C 2.695312 -4.375 2.53125 -4.351562 2.40625 -4.3125 C 2.175781 -4.238281 1.972656 -4.097656 1.796875 -3.890625 C 1.660156 -3.734375 1.570312 -3.566406 1.53125 -3.390625 C 1.488281 -3.210938 1.46875 -2.957031 1.46875 -2.625 L 1.46875 0 L 0.625 0 Z M 2.59375 -5.140625 Z M 2.59375 -5.140625 "/>
</symbol>
<symbol overflow="visible" id="d962b146-22cd-4a97-afb8-ba143c2c8d65">
<path style="stroke:none;" d="M 3.375 -0.796875 C 3.6875 -0.796875 3.945312 -0.828125 4.15625 -0.890625 C 4.507812 -1.015625 4.804688 -1.25 5.046875 -1.59375 C 5.222656 -1.875 5.351562 -2.234375 5.4375 -2.671875 C 5.488281 -2.921875 5.515625 -3.160156 5.515625 -3.390625 C 5.515625 -4.242188 5.34375 -4.90625 5 -5.375 C 4.664062 -5.84375 4.117188 -6.078125 3.359375 -6.078125 L 1.703125 -6.078125 L 1.703125 -0.796875 Z M 0.765625 -6.875 L 3.5625 -6.875 C 4.507812 -6.875 5.242188 -6.539062 5.765625 -5.875 C 6.222656 -5.269531 6.453125 -4.492188 6.453125 -3.546875 C 6.453125 -2.816406 6.316406 -2.15625 6.046875 -1.5625 C 5.566406 -0.519531 4.734375 0 3.546875 0 L 0.765625 0 Z M 0.765625 -6.875 "/>
</symbol>
<symbol overflow="visible" id="f938f65e-6527-4cc3-b920-b8aaed245f39">
<path style="stroke:none;" d="M 1.265625 -1.328125 C 1.265625 -1.085938 1.351562 -0.894531 1.53125 -0.75 C 1.707031 -0.613281 1.921875 -0.546875 2.171875 -0.546875 C 2.460938 -0.546875 2.75 -0.613281 3.03125 -0.75 C 3.5 -0.976562 3.734375 -1.351562 3.734375 -1.875 L 3.734375 -2.546875 C 3.628906 -2.484375 3.492188 -2.429688 3.328125 -2.390625 C 3.171875 -2.347656 3.015625 -2.316406 2.859375 -2.296875 L 2.34375 -2.234375 C 2.039062 -2.191406 1.8125 -2.125 1.65625 -2.03125 C 1.394531 -1.882812 1.265625 -1.648438 1.265625 -1.328125 Z M 3.3125 -3.046875 C 3.5 -3.066406 3.628906 -3.144531 3.703125 -3.28125 C 3.734375 -3.351562 3.75 -3.460938 3.75 -3.609375 C 3.75 -3.890625 3.644531 -4.09375 3.4375 -4.21875 C 3.238281 -4.351562 2.945312 -4.421875 2.5625 -4.421875 C 2.125 -4.421875 1.8125 -4.304688 1.625 -4.078125 C 1.519531 -3.941406 1.453125 -3.742188 1.421875 -3.484375 L 0.640625 -3.484375 C 0.660156 -4.097656 0.863281 -4.523438 1.25 -4.765625 C 1.632812 -5.015625 2.078125 -5.140625 2.578125 -5.140625 C 3.171875 -5.140625 3.65625 -5.023438 4.03125 -4.796875 C 4.394531 -4.578125 4.578125 -4.226562 4.578125 -3.75 L 4.578125 -0.859375 C 4.578125 -0.773438 4.59375 -0.707031 4.625 -0.65625 C 4.664062 -0.601562 4.742188 -0.578125 4.859375 -0.578125 C 4.890625 -0.578125 4.925781 -0.578125 4.96875 -0.578125 C 5.019531 -0.578125 5.070312 -0.582031 5.125 -0.59375 L 5.125 0.015625 C 5 0.0546875 4.898438 0.0820312 4.828125 0.09375 C 4.765625 0.101562 4.671875 0.109375 4.546875 0.109375 C 4.253906 0.109375 4.046875 0.00390625 3.921875 -0.203125 C 3.847656 -0.304688 3.796875 -0.460938 3.765625 -0.671875 C 3.597656 -0.441406 3.351562 -0.242188 3.03125 -0.078125 C 2.707031 0.0859375 2.351562 0.171875 1.96875 0.171875 C 1.5 0.171875 1.117188 0.03125 0.828125 -0.25 C 0.535156 -0.53125 0.390625 -0.882812 0.390625 -1.3125 C 0.390625 -1.78125 0.53125 -2.140625 0.8125 -2.390625 C 1.101562 -2.648438 1.488281 -2.8125 1.96875 -2.875 Z M 2.609375 -5.140625 Z M 2.609375 -5.140625 "/>
</symbol>
<symbol overflow="visible" id="940335a1-fcb7-40e9-aa9e-8fda0fad0e13">
<path style="stroke:none;" d="M 2.734375 -0.5625 C 3.128906 -0.5625 3.457031 -0.726562 3.71875 -1.0625 C 3.976562 -1.394531 4.109375 -1.882812 4.109375 -2.53125 C 4.109375 -2.9375 4.050781 -3.28125 3.9375 -3.5625 C 3.71875 -4.125 3.316406 -4.40625 2.734375 -4.40625 C 2.148438 -4.40625 1.75 -4.109375 1.53125 -3.515625 C 1.414062 -3.203125 1.359375 -2.804688 1.359375 -2.328125 C 1.359375 -1.941406 1.414062 -1.613281 1.53125 -1.34375 C 1.75 -0.820312 2.148438 -0.5625 2.734375 -0.5625 Z M 0.546875 -5 L 1.375 -5 L 1.375 -4.328125 C 1.539062 -4.554688 1.722656 -4.734375 1.921875 -4.859375 C 2.210938 -5.046875 2.546875 -5.140625 2.921875 -5.140625 C 3.492188 -5.140625 3.976562 -4.921875 4.375 -4.484375 C 4.769531 -4.046875 4.96875 -3.425781 4.96875 -2.625 C 4.96875 -1.53125 4.679688 -0.75 4.109375 -0.28125 C 3.742188 0.0195312 3.320312 0.171875 2.84375 0.171875 C 2.46875 0.171875 2.148438 0.0859375 1.890625 -0.078125 C 1.742188 -0.171875 1.578125 -0.332031 1.390625 -0.5625 L 1.390625 2 L 0.546875 2 Z M 0.546875 -5 "/>
</symbol>
<symbol overflow="visible" id="88fb6af2-1e49-4884-aff0-c1782abacad6">
<path style="stroke:none;" d="M 1.15625 -2.453125 C 1.15625 -1.910156 1.269531 -1.457031 1.5 -1.09375 C 1.726562 -0.738281 2.09375 -0.5625 2.59375 -0.5625 C 2.976562 -0.5625 3.296875 -0.726562 3.546875 -1.0625 C 3.804688 -1.394531 3.9375 -1.875 3.9375 -2.5 C 3.9375 -3.132812 3.804688 -3.601562 3.546875 -3.90625 C 3.285156 -4.21875 2.960938 -4.375 2.578125 -4.375 C 2.148438 -4.375 1.804688 -4.207031 1.546875 -3.875 C 1.285156 -3.550781 1.15625 -3.078125 1.15625 -2.453125 Z M 2.421875 -5.109375 C 2.804688 -5.109375 3.128906 -5.023438 3.390625 -4.859375 C 3.535156 -4.765625 3.703125 -4.601562 3.890625 -4.375 L 3.890625 -6.90625 L 4.703125 -6.90625 L 4.703125 0 L 3.953125 0 L 3.953125 -0.703125 C 3.753906 -0.390625 3.519531 -0.164062 3.25 -0.03125 C 2.976562 0.101562 2.671875 0.171875 2.328125 0.171875 C 1.765625 0.171875 1.28125 -0.0625 0.875 -0.53125 C 0.46875 -1 0.265625 -1.625 0.265625 -2.40625 C 0.265625 -3.132812 0.445312 -3.765625 0.8125 -4.296875 C 1.1875 -4.835938 1.722656 -5.109375 2.421875 -5.109375 Z M 2.421875 -5.109375 "/>
</symbol>
<symbol overflow="visible" id="45cf7c4c-adf3-4f0b-a01b-da4433adbbd9">
<path style="stroke:none;" d="M 0.75 -6.875 L 1.703125 -6.875 L 1.703125 -4.03125 L 5.28125 -4.03125 L 5.28125 -6.875 L 6.21875 -6.875 L 6.21875 0 L 5.28125 0 L 5.28125 -3.21875 L 1.703125 -3.21875 L 1.703125 0 L 0.75 0 Z M 0.75 -6.875 "/>
</symbol>
<symbol overflow="visible" id="f6114ba1-bae2-4951-b960-a874480584bf">
<path style="stroke:none;" d="M 0.640625 -6.875 L 1.484375 -6.875 L 1.484375 0 L 0.640625 0 Z M 0.640625 -6.875 "/>
</symbol>
<symbol overflow="visible" id="1abc5fac-5a41-4fea-8068-17f0d6ecf43a">
<path style="stroke:none;" d="M 3.75 -5.015625 L 4.6875 -5.015625 C 4.5625 -4.691406 4.296875 -3.957031 3.890625 -2.8125 C 3.585938 -1.945312 3.332031 -1.242188 3.125 -0.703125 C 2.632812 0.578125 2.289062 1.359375 2.09375 1.640625 C 1.894531 1.921875 1.550781 2.0625 1.0625 2.0625 C 0.945312 2.0625 0.851562 2.054688 0.78125 2.046875 C 0.71875 2.035156 0.640625 2.015625 0.546875 1.984375 L 0.546875 1.21875 C 0.691406 1.257812 0.796875 1.285156 0.859375 1.296875 C 0.929688 1.304688 0.992188 1.3125 1.046875 1.3125 C 1.203125 1.3125 1.316406 1.285156 1.390625 1.234375 C 1.460938 1.179688 1.523438 1.117188 1.578125 1.046875 C 1.585938 1.015625 1.640625 0.882812 1.734375 0.65625 C 1.835938 0.425781 1.910156 0.253906 1.953125 0.140625 L 0.09375 -5.015625 L 1.046875 -5.015625 L 2.40625 -0.9375 Z M 2.390625 -5.140625 Z M 2.390625 -5.140625 "/>
</symbol>
<symbol overflow="visible" id="b41a6cd3-b7b7-4b5c-8552-b1c3485c137c">
<path style="stroke:none;" d="M 0.625 -5 L 1.46875 -5 L 1.46875 0 L 0.625 0 Z M 0.625 -6.875 L 1.46875 -6.875 L 1.46875 -5.921875 L 0.625 -5.921875 Z M 0.625 -6.875 "/>
</symbol>
<symbol overflow="visible" id="497ba663-487c-4e82-b44a-3d562039042a">
<path style="stroke:none;" d="M 0.546875 -6.90625 L 1.375 -6.90625 L 1.375 -4.40625 C 1.5625 -4.644531 1.78125 -4.828125 2.03125 -4.953125 C 2.289062 -5.078125 2.566406 -5.140625 2.859375 -5.140625 C 3.484375 -5.140625 3.988281 -4.925781 4.375 -4.5 C 4.769531 -4.070312 4.96875 -3.441406 4.96875 -2.609375 C 4.96875 -1.816406 4.773438 -1.15625 4.390625 -0.625 C 4.003906 -0.101562 3.472656 0.15625 2.796875 0.15625 C 2.410156 0.15625 2.085938 0.0664062 1.828125 -0.109375 C 1.671875 -0.222656 1.503906 -0.398438 1.328125 -0.640625 L 1.328125 0 L 0.546875 0 Z M 2.75 -0.578125 C 3.195312 -0.578125 3.535156 -0.757812 3.765625 -1.125 C 3.992188 -1.488281 4.109375 -1.96875 4.109375 -2.5625 C 4.109375 -3.09375 3.992188 -3.53125 3.765625 -3.875 C 3.535156 -4.21875 3.203125 -4.390625 2.765625 -4.390625 C 2.378906 -4.390625 2.039062 -4.25 1.75 -3.96875 C 1.46875 -3.6875 1.328125 -3.21875 1.328125 -2.5625 C 1.328125 -2.09375 1.382812 -1.710938 1.5 -1.421875 C 1.726562 -0.859375 2.144531 -0.578125 2.75 -0.578125 Z M 2.75 -0.578125 "/>
</symbol>
<symbol overflow="visible" id="80339273-3717-43a0-b9d0-e5b49f16987e">
<path style="stroke:none;" d="M 4.109375 -2.046875 C 4.109375 -1.472656 4.019531 -1.023438 3.84375 -0.703125 C 3.53125 -0.109375 2.925781 0.1875 2.03125 0.1875 C 1.519531 0.1875 1.078125 0.046875 0.703125 -0.234375 C 0.335938 -0.515625 0.15625 -1.015625 0.15625 -1.734375 L 0.15625 -2.21875 L 1.046875 -2.21875 L 1.046875 -1.734375 C 1.046875 -1.359375 1.128906 -1.070312 1.296875 -0.875 C 1.460938 -0.6875 1.722656 -0.59375 2.078125 -0.59375 C 2.566406 -0.59375 2.890625 -0.765625 3.046875 -1.109375 C 3.140625 -1.316406 3.1875 -1.710938 3.1875 -2.296875 L 3.1875 -6.875 L 4.109375 -6.875 Z M 4.109375 -2.046875 "/>
</symbol>
<symbol overflow="visible" id="750c6e86-19ce-457d-bc66-bd0d6f316f83">
<path style="stroke:none;" d="M 1 -5.015625 L 1.96875 -1.0625 L 2.953125 -5.015625 L 3.890625 -5.015625 L 4.875 -1.09375 L 5.90625 -5.015625 L 6.75 -5.015625 L 5.296875 0 L 4.421875 0 L 3.390625 -3.890625 L 2.40625 0 L 1.53125 0 L 0.078125 -5.015625 Z M 1 -5.015625 "/>
</symbol>
<symbol overflow="visible" id="5c8397bd-783a-49f0-9259-e5d9c689e482">
<path style="stroke:none;" d="M 1.125 -1.578125 C 1.144531 -1.296875 1.210938 -1.078125 1.328125 -0.921875 C 1.546875 -0.648438 1.914062 -0.515625 2.4375 -0.515625 C 2.75 -0.515625 3.019531 -0.582031 3.25 -0.71875 C 3.488281 -0.851562 3.609375 -1.066406 3.609375 -1.359375 C 3.609375 -1.566406 3.515625 -1.726562 3.328125 -1.84375 C 3.203125 -1.914062 2.960938 -1.992188 2.609375 -2.078125 L 1.9375 -2.25 C 1.507812 -2.351562 1.195312 -2.472656 1 -2.609375 C 0.632812 -2.835938 0.453125 -3.15625 0.453125 -3.5625 C 0.453125 -4.03125 0.617188 -4.410156 0.953125 -4.703125 C 1.296875 -4.992188 1.757812 -5.140625 2.34375 -5.140625 C 3.09375 -5.140625 3.640625 -4.921875 3.984375 -4.484375 C 4.191406 -4.203125 4.289062 -3.898438 4.28125 -3.578125 L 3.484375 -3.578125 C 3.472656 -3.765625 3.40625 -3.9375 3.28125 -4.09375 C 3.09375 -4.3125 2.757812 -4.421875 2.28125 -4.421875 C 1.957031 -4.421875 1.710938 -4.359375 1.546875 -4.234375 C 1.390625 -4.117188 1.3125 -3.960938 1.3125 -3.765625 C 1.3125 -3.546875 1.414062 -3.367188 1.625 -3.234375 C 1.75 -3.160156 1.9375 -3.09375 2.1875 -3.03125 L 2.734375 -2.890625 C 3.347656 -2.742188 3.753906 -2.601562 3.953125 -2.46875 C 4.285156 -2.25 4.453125 -1.910156 4.453125 -1.453125 C 4.453125 -1.003906 4.28125 -0.617188 3.9375 -0.296875 C 3.601562 0.0234375 3.085938 0.1875 2.390625 0.1875 C 1.648438 0.1875 1.125 0.0195312 0.8125 -0.3125 C 0.5 -0.65625 0.332031 -1.078125 0.3125 -1.578125 Z M 2.359375 -5.140625 Z M 2.359375 -5.140625 "/>
</symbol>
<symbol overflow="visible" id="8dd3b575-8253-421e-a993-0b957818b248">
<path style="stroke:none;" d="M 1.34375 -2.21875 C 1.363281 -1.832031 1.453125 -1.515625 1.609375 -1.265625 C 1.921875 -0.804688 2.46875 -0.578125 3.25 -0.578125 C 3.601562 -0.578125 3.921875 -0.628906 4.203125 -0.734375 C 4.765625 -0.929688 5.046875 -1.28125 5.046875 -1.78125 C 5.046875 -2.15625 4.925781 -2.421875 4.6875 -2.578125 C 4.445312 -2.734375 4.078125 -2.867188 3.578125 -2.984375 L 2.640625 -3.1875 C 2.035156 -3.332031 1.601562 -3.488281 1.34375 -3.65625 C 0.90625 -3.9375 0.6875 -4.363281 0.6875 -4.9375 C 0.6875 -5.550781 0.898438 -6.054688 1.328125 -6.453125 C 1.765625 -6.859375 2.375 -7.0625 3.15625 -7.0625 C 3.875 -7.0625 4.484375 -6.882812 4.984375 -6.53125 C 5.492188 -6.1875 5.75 -5.628906 5.75 -4.859375 L 4.875 -4.859375 C 4.820312 -5.234375 4.722656 -5.515625 4.578125 -5.703125 C 4.285156 -6.066406 3.800781 -6.25 3.125 -6.25 C 2.570312 -6.25 2.175781 -6.132812 1.9375 -5.90625 C 1.695312 -5.675781 1.578125 -5.40625 1.578125 -5.09375 C 1.578125 -4.757812 1.71875 -4.515625 2 -4.359375 C 2.1875 -4.253906 2.601562 -4.128906 3.25 -3.984375 L 4.21875 -3.765625 C 4.675781 -3.660156 5.035156 -3.515625 5.296875 -3.328125 C 5.734375 -3.003906 5.953125 -2.535156 5.953125 -1.921875 C 5.953125 -1.160156 5.671875 -0.613281 5.109375 -0.28125 C 4.554688 0.0390625 3.914062 0.203125 3.1875 0.203125 C 2.332031 0.203125 1.660156 -0.015625 1.171875 -0.453125 C 0.691406 -0.890625 0.457031 -1.476562 0.46875 -2.21875 Z M 3.21875 -7.0625 Z M 3.21875 -7.0625 "/>
</symbol>
<symbol overflow="visible" id="2a42e5da-dcda-4fc6-af58-5c293775622c">
<path style="stroke:none;" d="M 2.546875 -5.15625 C 3.117188 -5.15625 3.582031 -5.019531 3.9375 -4.75 C 4.289062 -4.476562 4.503906 -4.003906 4.578125 -3.328125 L 3.75 -3.328125 C 3.695312 -3.640625 3.582031 -3.894531 3.40625 -4.09375 C 3.226562 -4.300781 2.941406 -4.40625 2.546875 -4.40625 C 2.015625 -4.40625 1.632812 -4.144531 1.40625 -3.625 C 1.25 -3.28125 1.171875 -2.859375 1.171875 -2.359375 C 1.171875 -1.859375 1.273438 -1.4375 1.484375 -1.09375 C 1.703125 -0.75 2.039062 -0.578125 2.5 -0.578125 C 2.84375 -0.578125 3.117188 -0.679688 3.328125 -0.890625 C 3.535156 -1.109375 3.675781 -1.40625 3.75 -1.78125 L 4.578125 -1.78125 C 4.484375 -1.113281 4.25 -0.625 3.875 -0.3125 C 3.5 -0.0078125 3.019531 0.140625 2.4375 0.140625 C 1.78125 0.140625 1.253906 -0.0976562 0.859375 -0.578125 C 0.472656 -1.054688 0.28125 -1.65625 0.28125 -2.375 C 0.28125 -3.25 0.492188 -3.929688 0.921875 -4.421875 C 1.347656 -4.910156 1.890625 -5.15625 2.546875 -5.15625 Z M 2.421875 -5.140625 Z M 2.421875 -5.140625 "/>
</symbol>
<symbol overflow="visible" id="051daabc-d951-4dca-928b-1727bd5b9de5">
<path style="stroke:none;" d="M 0.78125 -6.421875 L 1.640625 -6.421875 L 1.640625 -5.015625 L 2.4375 -5.015625 L 2.4375 -4.328125 L 1.640625 -4.328125 L 1.640625 -1.046875 C 1.640625 -0.878906 1.695312 -0.765625 1.8125 -0.703125 C 1.882812 -0.671875 1.992188 -0.65625 2.140625 -0.65625 C 2.179688 -0.65625 2.222656 -0.65625 2.265625 -0.65625 C 2.316406 -0.65625 2.375 -0.660156 2.4375 -0.671875 L 2.4375 0 C 2.34375 0.03125 2.242188 0.0507812 2.140625 0.0625 C 2.035156 0.0703125 1.921875 0.078125 1.796875 0.078125 C 1.398438 0.078125 1.128906 -0.0195312 0.984375 -0.21875 C 0.847656 -0.425781 0.78125 -0.6875 0.78125 -1 L 0.78125 -4.328125 L 0.109375 -4.328125 L 0.109375 -5.015625 L 0.78125 -5.015625 Z M 0.78125 -6.421875 "/>
</symbol>
<symbol overflow="visible" id="9a6fec84-905e-4ba9-89e4-654c4013af9d">
<path style="stroke:none;" d="M 1.46875 -5.015625 L 1.46875 -1.6875 C 1.46875 -1.425781 1.503906 -1.21875 1.578125 -1.0625 C 1.734375 -0.757812 2.015625 -0.609375 2.421875 -0.609375 C 3.003906 -0.609375 3.40625 -0.867188 3.625 -1.390625 C 3.738281 -1.671875 3.796875 -2.054688 3.796875 -2.546875 L 3.796875 -5.015625 L 4.640625 -5.015625 L 4.640625 0 L 3.84375 0 L 3.84375 -0.734375 C 3.738281 -0.546875 3.601562 -0.382812 3.4375 -0.25 C 3.113281 0.0078125 2.722656 0.140625 2.265625 0.140625 C 1.554688 0.140625 1.070312 -0.0976562 0.8125 -0.578125 C 0.664062 -0.835938 0.59375 -1.179688 0.59375 -1.609375 L 0.59375 -5.015625 Z M 2.625 -5.140625 Z M 2.625 -5.140625 "/>
</symbol>
<symbol overflow="visible" id="693ad499-a892-4535-b925-d3ca57069280">
<path style="stroke:none;" d="M 0.734375 -6.875 L 1.640625 -6.875 L 1.640625 -3.53125 L 5 -6.875 L 6.28125 -6.875 L 3.421875 -4.109375 L 6.359375 0 L 5.140625 0 L 2.734375 -3.453125 L 1.640625 -2.40625 L 1.640625 0 L 0.734375 0 Z M 0.734375 -6.875 "/>
</symbol>
<symbol overflow="visible" id="3fe5be65-4299-494b-9005-c9fa157d20b2">
<path style="stroke:none;" d="M 1.28125 -6.875 L 3.25 -1.015625 L 5.203125 -6.875 L 6.25 -6.875 L 3.734375 0 L 2.75 0 L 0.25 -6.875 Z M 1.28125 -6.875 "/>
</symbol>
<symbol overflow="visible" id="909bfac9-403c-4dc4-abcc-7522bca5a93c">
<path style="stroke:none;" d="M 2.59375 -6.703125 C 3.457031 -6.703125 4.085938 -6.347656 4.484375 -5.640625 C 4.773438 -5.085938 4.921875 -4.328125 4.921875 -3.359375 C 4.921875 -2.453125 4.785156 -1.695312 4.515625 -1.09375 C 4.128906 -0.238281 3.488281 0.1875 2.59375 0.1875 C 1.78125 0.1875 1.179688 -0.160156 0.796875 -0.859375 C 0.460938 -1.453125 0.296875 -2.238281 0.296875 -3.21875 C 0.296875 -3.976562 0.394531 -4.632812 0.59375 -5.1875 C 0.957031 -6.195312 1.625 -6.703125 2.59375 -6.703125 Z M 2.578125 -0.578125 C 3.015625 -0.578125 3.363281 -0.769531 3.625 -1.15625 C 3.882812 -1.550781 4.015625 -2.273438 4.015625 -3.328125 C 4.015625 -4.085938 3.921875 -4.710938 3.734375 -5.203125 C 3.546875 -5.703125 3.179688 -5.953125 2.640625 -5.953125 C 2.148438 -5.953125 1.789062 -5.71875 1.5625 -5.25 C 1.332031 -4.78125 1.21875 -4.09375 1.21875 -3.1875 C 1.21875 -2.5 1.289062 -1.945312 1.4375 -1.53125 C 1.65625 -0.894531 2.035156 -0.578125 2.578125 -0.578125 Z M 2.578125 -0.578125 "/>
</symbol>
<symbol overflow="visible" id="df978cb0-ca66-462d-a426-8d758da06692">
<path style="stroke:none;" d="M 0.8125 -1.015625 L 1.796875 -1.015625 L 1.796875 0 L 0.8125 0 Z M 0.8125 -1.015625 "/>
</symbol>
<symbol overflow="visible" id="3a733ba5-ec98-46f7-8688-19e676d4664c">
<path style="stroke:none;" d="M 1.1875 -1.703125 C 1.238281 -1.222656 1.460938 -0.894531 1.859375 -0.71875 C 2.054688 -0.625 2.285156 -0.578125 2.546875 -0.578125 C 3.046875 -0.578125 3.414062 -0.734375 3.65625 -1.046875 C 3.894531 -1.367188 4.015625 -1.722656 4.015625 -2.109375 C 4.015625 -2.578125 3.867188 -2.9375 3.578125 -3.1875 C 3.296875 -3.445312 2.957031 -3.578125 2.5625 -3.578125 C 2.269531 -3.578125 2.019531 -3.519531 1.8125 -3.40625 C 1.601562 -3.289062 1.425781 -3.132812 1.28125 -2.9375 L 0.546875 -2.984375 L 1.0625 -6.59375 L 4.546875 -6.59375 L 4.546875 -5.78125 L 1.703125 -5.78125 L 1.40625 -3.921875 C 1.5625 -4.035156 1.710938 -4.125 1.859375 -4.1875 C 2.109375 -4.289062 2.394531 -4.34375 2.71875 -4.34375 C 3.332031 -4.34375 3.851562 -4.140625 4.28125 -3.734375 C 4.707031 -3.335938 4.921875 -2.835938 4.921875 -2.234375 C 4.921875 -1.597656 4.722656 -1.035156 4.328125 -0.546875 C 3.941406 -0.0664062 3.320312 0.171875 2.46875 0.171875 C 1.914062 0.171875 1.429688 0.0195312 1.015625 -0.28125 C 0.597656 -0.59375 0.363281 -1.066406 0.3125 -1.703125 Z M 1.1875 -1.703125 "/>
</symbol>
<symbol overflow="visible" id="e9c6fd6f-0e9b-44a7-b818-2a3d8b55829c">
<path style="stroke:none;" d="M 0.921875 -4.75 L 0.921875 -5.390625 C 1.523438 -5.453125 1.945312 -5.550781 2.1875 -5.6875 C 2.425781 -5.832031 2.609375 -6.164062 2.734375 -6.6875 L 3.390625 -6.6875 L 3.390625 0 L 2.5 0 L 2.5 -4.75 Z M 0.921875 -4.75 "/>
</symbol>
<symbol overflow="visible" id="04cb0d51-5e82-4f97-94e4-3e73f0477bc0">
<path style="stroke:none;" d="M 0.296875 0 C 0.328125 -0.570312 0.445312 -1.070312 0.65625 -1.5 C 0.863281 -1.9375 1.269531 -2.328125 1.875 -2.671875 L 2.765625 -3.1875 C 3.171875 -3.425781 3.457031 -3.628906 3.625 -3.796875 C 3.875 -4.054688 4 -4.351562 4 -4.6875 C 4 -5.070312 3.878906 -5.378906 3.640625 -5.609375 C 3.410156 -5.835938 3.101562 -5.953125 2.71875 -5.953125 C 2.132812 -5.953125 1.734375 -5.734375 1.515625 -5.296875 C 1.398438 -5.066406 1.335938 -4.742188 1.328125 -4.328125 L 0.46875 -4.328125 C 0.476562 -4.910156 0.582031 -5.382812 0.78125 -5.75 C 1.144531 -6.40625 1.789062 -6.734375 2.71875 -6.734375 C 3.488281 -6.734375 4.050781 -6.523438 4.40625 -6.109375 C 4.757812 -5.691406 4.9375 -5.226562 4.9375 -4.71875 C 4.9375 -4.1875 4.75 -3.726562 4.375 -3.34375 C 4.15625 -3.125 3.757812 -2.851562 3.1875 -2.53125 L 2.546875 -2.1875 C 2.242188 -2.019531 2.003906 -1.859375 1.828125 -1.703125 C 1.515625 -1.429688 1.316406 -1.128906 1.234375 -0.796875 L 4.90625 -0.796875 L 4.90625 0 Z M 0.296875 0 "/>
</symbol>
<symbol overflow="visible" id="59426237-9d06-4d88-b84e-c7134a9451e1">
<path style="stroke:none;" d="M 0.46875 0 L 0.46875 -10.328125 L 8.671875 -10.328125 L 8.671875 0 Z M 7.375 -1.296875 L 7.375 -9.046875 L 1.765625 -9.046875 L 1.765625 -1.296875 Z M 7.375 -1.296875 "/>
</symbol>
<symbol overflow="visible" id="9d460fb3-26de-491d-9aa0-c51265957133">
<path style="stroke:none;" d="M 2.015625 -3.328125 C 2.046875 -2.742188 2.179688 -2.269531 2.421875 -1.90625 C 2.890625 -1.21875 3.707031 -0.875 4.875 -0.875 C 5.40625 -0.875 5.882812 -0.953125 6.3125 -1.109375 C 7.144531 -1.398438 7.5625 -1.921875 7.5625 -2.671875 C 7.5625 -3.234375 7.390625 -3.632812 7.046875 -3.875 C 6.679688 -4.101562 6.117188 -4.304688 5.359375 -4.484375 L 3.96875 -4.796875 C 3.050781 -5.003906 2.40625 -5.234375 2.03125 -5.484375 C 1.375 -5.910156 1.046875 -6.554688 1.046875 -7.421875 C 1.046875 -8.347656 1.363281 -9.109375 2 -9.703125 C 2.644531 -10.296875 3.554688 -10.59375 4.734375 -10.59375 C 5.816406 -10.59375 6.734375 -10.332031 7.484375 -9.8125 C 8.242188 -9.289062 8.625 -8.453125 8.625 -7.296875 L 7.3125 -7.296875 C 7.238281 -7.847656 7.085938 -8.273438 6.859375 -8.578125 C 6.429688 -9.117188 5.707031 -9.390625 4.6875 -9.390625 C 3.863281 -9.390625 3.269531 -9.210938 2.90625 -8.859375 C 2.550781 -8.515625 2.375 -8.113281 2.375 -7.65625 C 2.375 -7.144531 2.582031 -6.773438 3 -6.546875 C 3.28125 -6.390625 3.90625 -6.203125 4.875 -5.984375 L 6.328125 -5.65625 C 7.023438 -5.488281 7.566406 -5.269531 7.953125 -5 C 8.609375 -4.507812 8.9375 -3.804688 8.9375 -2.890625 C 8.9375 -1.742188 8.519531 -0.925781 7.6875 -0.4375 C 6.851562 0.0507812 5.882812 0.296875 4.78125 0.296875 C 3.5 0.296875 2.492188 -0.03125 1.765625 -0.6875 C 1.035156 -1.332031 0.679688 -2.210938 0.703125 -3.328125 Z M 4.84375 -10.609375 Z M 4.84375 -10.609375 "/>
</symbol>
<symbol overflow="visible" id="6c81e28a-dfe4-4247-a594-d917e486d796">
<path style="stroke:none;" d="M 4.0625 -7.703125 C 4.601562 -7.703125 5.125 -7.578125 5.625 -7.328125 C 6.125 -7.078125 6.503906 -6.753906 6.765625 -6.359375 C 7.015625 -5.972656 7.1875 -5.523438 7.28125 -5.015625 C 7.351562 -4.671875 7.390625 -4.117188 7.390625 -3.359375 L 1.859375 -3.359375 C 1.890625 -2.597656 2.070312 -1.984375 2.40625 -1.515625 C 2.738281 -1.054688 3.257812 -0.828125 3.96875 -0.828125 C 4.632812 -0.828125 5.164062 -1.046875 5.5625 -1.484375 C 5.78125 -1.734375 5.9375 -2.023438 6.03125 -2.359375 L 7.28125 -2.359375 C 7.25 -2.085938 7.140625 -1.78125 6.953125 -1.4375 C 6.765625 -1.09375 6.554688 -0.816406 6.328125 -0.609375 C 5.941406 -0.234375 5.46875 0.0195312 4.90625 0.15625 C 4.601562 0.226562 4.257812 0.265625 3.875 0.265625 C 2.9375 0.265625 2.140625 -0.0703125 1.484375 -0.75 C 0.828125 -1.4375 0.5 -2.394531 0.5 -3.625 C 0.5 -4.832031 0.828125 -5.8125 1.484375 -6.5625 C 2.140625 -7.320312 3 -7.703125 4.0625 -7.703125 Z M 6.078125 -4.375 C 6.023438 -4.914062 5.90625 -5.351562 5.71875 -5.6875 C 5.375 -6.289062 4.796875 -6.59375 3.984375 -6.59375 C 3.398438 -6.59375 2.910156 -6.382812 2.515625 -5.96875 C 2.128906 -5.550781 1.925781 -5.019531 1.90625 -4.375 Z M 3.953125 -7.71875 Z M 3.953125 -7.71875 "/>
</symbol>
<symbol overflow="visible" id="7d2eae7f-40cc-4d0e-9993-97660236080e">
<path style="stroke:none;" d="M 0.921875 -7.53125 L 2.125 -7.53125 L 2.125 -6.46875 C 2.488281 -6.90625 2.867188 -7.21875 3.265625 -7.40625 C 3.660156 -7.601562 4.101562 -7.703125 4.59375 -7.703125 C 5.664062 -7.703125 6.390625 -7.328125 6.765625 -6.578125 C 6.960938 -6.171875 7.0625 -5.585938 7.0625 -4.828125 L 7.0625 0 L 5.78125 0 L 5.78125 -4.75 C 5.78125 -5.207031 5.710938 -5.578125 5.578125 -5.859375 C 5.347656 -6.328125 4.941406 -6.5625 4.359375 -6.5625 C 4.054688 -6.5625 3.804688 -6.53125 3.609375 -6.46875 C 3.265625 -6.363281 2.960938 -6.160156 2.703125 -5.859375 C 2.492188 -5.609375 2.351562 -5.347656 2.28125 -5.078125 C 2.21875 -4.816406 2.1875 -4.441406 2.1875 -3.953125 L 2.1875 0 L 0.921875 0 Z M 3.90625 -7.71875 Z M 3.90625 -7.71875 "/>
</symbol>
<symbol overflow="visible" id="36dd1885-6b08-4486-96a7-366cb96b9047">
<path style="stroke:none;" d="M 1.1875 -9.640625 L 2.46875 -9.640625 L 2.46875 -7.53125 L 3.671875 -7.53125 L 3.671875 -6.5 L 2.46875 -6.5 L 2.46875 -1.578125 C 2.46875 -1.316406 2.554688 -1.144531 2.734375 -1.0625 C 2.828125 -1.007812 2.988281 -0.984375 3.21875 -0.984375 C 3.28125 -0.984375 3.347656 -0.984375 3.421875 -0.984375 C 3.492188 -0.984375 3.578125 -0.988281 3.671875 -1 L 3.671875 0 C 3.523438 0.0390625 3.367188 0.0703125 3.203125 0.09375 C 3.046875 0.113281 2.878906 0.125 2.703125 0.125 C 2.109375 0.125 1.707031 -0.0234375 1.5 -0.328125 C 1.289062 -0.628906 1.1875 -1.023438 1.1875 -1.515625 L 1.1875 -6.5 L 0.15625 -6.5 L 0.15625 -7.53125 L 1.1875 -7.53125 Z M 1.1875 -9.640625 "/>
</symbol>
<symbol overflow="visible" id="75a40da4-ffae-4037-ab64-1c824bb271ae">
<path style="stroke:none;" d="M 3.828125 -7.75 C 4.679688 -7.75 5.375 -7.539062 5.90625 -7.125 C 6.4375 -6.71875 6.753906 -6.007812 6.859375 -5 L 5.640625 -5 C 5.554688 -5.46875 5.378906 -5.851562 5.109375 -6.15625 C 4.847656 -6.46875 4.421875 -6.625 3.828125 -6.625 C 3.023438 -6.625 2.453125 -6.226562 2.109375 -5.4375 C 1.878906 -4.925781 1.765625 -4.296875 1.765625 -3.546875 C 1.765625 -2.785156 1.921875 -2.144531 2.234375 -1.625 C 2.554688 -1.113281 3.0625 -0.859375 3.75 -0.859375 C 4.269531 -0.859375 4.679688 -1.019531 4.984375 -1.34375 C 5.296875 -1.664062 5.515625 -2.109375 5.640625 -2.671875 L 6.859375 -2.671875 C 6.722656 -1.671875 6.375 -0.9375 5.8125 -0.46875 C 5.25 -0.0078125 4.53125 0.21875 3.65625 0.21875 C 2.664062 0.21875 1.878906 -0.140625 1.296875 -0.859375 C 0.710938 -1.578125 0.421875 -2.476562 0.421875 -3.5625 C 0.421875 -4.882812 0.738281 -5.910156 1.375 -6.640625 C 2.019531 -7.378906 2.835938 -7.75 3.828125 -7.75 Z M 3.640625 -7.71875 Z M 3.640625 -7.71875 "/>
</symbol>
<symbol overflow="visible" id="07a13d30-c9ec-4b5a-824d-cf4679ae9d03">
<path style="stroke:none;" d="M 1.6875 -2.359375 C 1.71875 -1.941406 1.820312 -1.617188 2 -1.390625 C 2.3125 -0.984375 2.863281 -0.78125 3.65625 -0.78125 C 4.125 -0.78125 4.535156 -0.878906 4.890625 -1.078125 C 5.253906 -1.285156 5.4375 -1.601562 5.4375 -2.03125 C 5.4375 -2.351562 5.289062 -2.597656 5 -2.765625 C 4.820312 -2.867188 4.460938 -2.988281 3.921875 -3.125 L 2.90625 -3.390625 C 2.269531 -3.546875 1.796875 -3.722656 1.484375 -3.921875 C 0.941406 -4.265625 0.671875 -4.738281 0.671875 -5.34375 C 0.671875 -6.050781 0.925781 -6.625 1.4375 -7.0625 C 1.957031 -7.507812 2.648438 -7.734375 3.515625 -7.734375 C 4.648438 -7.734375 5.46875 -7.398438 5.96875 -6.734375 C 6.28125 -6.304688 6.429688 -5.847656 6.421875 -5.359375 L 5.234375 -5.359375 C 5.210938 -5.648438 5.113281 -5.910156 4.9375 -6.140625 C 4.644531 -6.472656 4.140625 -6.640625 3.421875 -6.640625 C 2.941406 -6.640625 2.578125 -6.546875 2.328125 -6.359375 C 2.085938 -6.179688 1.96875 -5.945312 1.96875 -5.65625 C 1.96875 -5.320312 2.128906 -5.054688 2.453125 -4.859375 C 2.640625 -4.742188 2.914062 -4.640625 3.28125 -4.546875 L 4.109375 -4.34375 C 5.023438 -4.125 5.632812 -3.910156 5.9375 -3.703125 C 6.4375 -3.378906 6.6875 -2.875 6.6875 -2.1875 C 6.6875 -1.507812 6.429688 -0.925781 5.921875 -0.4375 C 5.410156 0.0390625 4.632812 0.28125 3.59375 0.28125 C 2.46875 0.28125 1.671875 0.03125 1.203125 -0.46875 C 0.742188 -0.976562 0.5 -1.609375 0.46875 -2.359375 Z M 3.546875 -7.71875 Z M 3.546875 -7.71875 "/>
</symbol>
<symbol overflow="visible" id="e28aa769-5d27-4607-b815-0779b41c09f7">
<path style="stroke:none;" d=""/>
</symbol>
<symbol overflow="visible" id="c4464821-0860-4e1e-966a-87161922a987">
<path style="stroke:none;" d="M 1.515625 -7.53125 L 2.96875 -1.59375 L 4.4375 -7.53125 L 5.859375 -7.53125 L 7.328125 -1.625 L 8.875 -7.53125 L 10.140625 -7.53125 L 7.953125 0 L 6.640625 0 L 5.09375 -5.828125 L 3.609375 0 L 2.296875 0 L 0.125 -7.53125 Z M 1.515625 -7.53125 "/>
</symbol>
<symbol overflow="visible" id="c52c59d6-3362-4900-aca0-e62b1d7cadb9">
<path style="stroke:none;" d="M 0.921875 -7.5 L 2.21875 -7.5 L 2.21875 0 L 0.921875 0 Z M 0.921875 -10.328125 L 2.21875 -10.328125 L 2.21875 -8.890625 L 0.921875 -8.890625 Z M 0.921875 -10.328125 "/>
</symbol>
<symbol overflow="visible" id="9de8810d-ff78-4608-a645-d8ed162c7cd3">
<path style="stroke:none;" d="M 0.921875 -10.375 L 2.1875 -10.375 L 2.1875 -6.515625 C 2.488281 -6.890625 2.757812 -7.15625 3 -7.3125 C 3.40625 -7.582031 3.914062 -7.71875 4.53125 -7.71875 C 5.625 -7.71875 6.363281 -7.332031 6.75 -6.5625 C 6.957031 -6.144531 7.0625 -5.566406 7.0625 -4.828125 L 7.0625 0 L 5.765625 0 L 5.765625 -4.75 C 5.765625 -5.300781 5.695312 -5.707031 5.5625 -5.96875 C 5.332031 -6.375 4.898438 -6.578125 4.265625 -6.578125 C 3.734375 -6.578125 3.253906 -6.394531 2.828125 -6.03125 C 2.398438 -5.675781 2.1875 -5 2.1875 -4 L 2.1875 0 L 0.921875 0 Z M 0.921875 -10.375 "/>
</symbol>
<symbol overflow="visible" id="d94611bd-9126-4e9f-82d4-ef6ff14f2dcb">
<path style="stroke:none;" d="M 1.90625 -10.328125 L 4.875 -1.53125 L 7.8125 -10.328125 L 9.390625 -10.328125 L 5.609375 0 L 4.125 0 L 0.359375 -10.328125 Z M 1.90625 -10.328125 "/>
</symbol>
<symbol overflow="visible" id="11c6c10f-9b25-42e3-8ddf-212e9b909802">
<path style="stroke:none;" d="M 3.921875 -0.8125 C 4.753906 -0.8125 5.328125 -1.128906 5.640625 -1.765625 C 5.953125 -2.398438 6.109375 -3.109375 6.109375 -3.890625 C 6.109375 -4.585938 6 -5.160156 5.78125 -5.609375 C 5.414062 -6.296875 4.800781 -6.640625 3.9375 -6.640625 C 3.15625 -6.640625 2.585938 -6.34375 2.234375 -5.75 C 1.890625 -5.164062 1.71875 -4.457031 1.71875 -3.625 C 1.71875 -2.820312 1.890625 -2.148438 2.234375 -1.609375 C 2.585938 -1.078125 3.148438 -0.8125 3.921875 -0.8125 Z M 3.96875 -7.75 C 4.9375 -7.75 5.753906 -7.425781 6.421875 -6.78125 C 7.097656 -6.132812 7.4375 -5.179688 7.4375 -3.921875 C 7.4375 -2.710938 7.140625 -1.707031 6.546875 -0.90625 C 5.953125 -0.113281 5.035156 0.28125 3.796875 0.28125 C 2.765625 0.28125 1.941406 -0.0664062 1.328125 -0.765625 C 0.722656 -1.472656 0.421875 -2.421875 0.421875 -3.609375 C 0.421875 -4.867188 0.738281 -5.875 1.375 -6.625 C 2.019531 -7.375 2.882812 -7.75 3.96875 -7.75 Z M 3.921875 -7.71875 Z M 3.921875 -7.71875 "/>
</symbol>
<symbol overflow="visible" id="b5a7e967-ae56-4b98-a8ba-a0adc393040f">
<path style="stroke:none;" d="M 0.96875 -10.328125 L 2.234375 -10.328125 L 2.234375 0 L 0.96875 0 Z M 0.96875 -10.328125 "/>
</symbol>
<symbol overflow="visible" id="da52efa3-83a1-48e9-848c-cd12c229df44">
<path style="stroke:none;" d="M 1.78125 -10.328125 L 3.734375 -1.921875 L 6.0625 -10.328125 L 7.578125 -10.328125 L 9.921875 -1.921875 L 11.859375 -10.328125 L 13.40625 -10.328125 L 10.6875 0 L 9.21875 0 L 6.828125 -8.5625 L 4.4375 0 L 2.96875 0 L 0.265625 -10.328125 Z M 1.78125 -10.328125 "/>
</symbol>
<symbol overflow="visible" id="27fb5a6e-541f-4343-9eab-4655514dea77">
<path style="stroke:none;" d="M 0.96875 -7.53125 L 2.171875 -7.53125 L 2.171875 -6.234375 C 2.265625 -6.484375 2.503906 -6.789062 2.890625 -7.15625 C 3.273438 -7.519531 3.71875 -7.703125 4.21875 -7.703125 C 4.238281 -7.703125 4.273438 -7.695312 4.328125 -7.6875 C 4.390625 -7.6875 4.488281 -7.679688 4.625 -7.671875 L 4.625 -6.328125 C 4.550781 -6.347656 4.484375 -6.359375 4.421875 -6.359375 C 4.359375 -6.359375 4.289062 -6.359375 4.21875 -6.359375 C 3.570312 -6.359375 3.078125 -6.15625 2.734375 -5.75 C 2.398438 -5.34375 2.234375 -4.867188 2.234375 -4.328125 L 2.234375 0 L 0.96875 0 Z M 0.96875 -7.53125 "/>
</symbol>
<symbol overflow="visible" id="d956c0d8-b376-4ea0-8366-99f176c634d7">
<path style="stroke:none;" d="M 1.734375 -3.671875 C 1.734375 -2.867188 1.898438 -2.195312 2.234375 -1.65625 C 2.578125 -1.113281 3.128906 -0.84375 3.890625 -0.84375 C 4.472656 -0.84375 4.953125 -1.09375 5.328125 -1.59375 C 5.710938 -2.09375 5.90625 -2.816406 5.90625 -3.765625 C 5.90625 -4.710938 5.707031 -5.414062 5.3125 -5.875 C 4.925781 -6.332031 4.445312 -6.5625 3.875 -6.5625 C 3.238281 -6.5625 2.722656 -6.316406 2.328125 -5.828125 C 1.929688 -5.335938 1.734375 -4.617188 1.734375 -3.671875 Z M 3.640625 -7.671875 C 4.210938 -7.671875 4.691406 -7.546875 5.078125 -7.296875 C 5.304688 -7.160156 5.566406 -6.914062 5.859375 -6.5625 L 5.859375 -10.375 L 7.0625 -10.375 L 7.0625 0 L 5.9375 0 L 5.9375 -1.046875 C 5.632812 -0.585938 5.28125 -0.253906 4.875 -0.046875 C 4.476562 0.160156 4.019531 0.265625 3.5 0.265625 C 2.65625 0.265625 1.925781 -0.0820312 1.3125 -0.78125 C 0.695312 -1.488281 0.390625 -2.429688 0.390625 -3.609375 C 0.390625 -4.703125 0.671875 -5.648438 1.234375 -6.453125 C 1.796875 -7.265625 2.597656 -7.671875 3.640625 -7.671875 Z M 3.640625 -7.671875 "/>
</symbol>
<symbol overflow="visible" id="abcbf6f3-3746-4fdb-84bf-aef45212b34d">
<path style="stroke:none;" d="M 4.265625 -10.5 C 3.523438 -9.070312 3.046875 -8.019531 2.828125 -7.34375 C 2.492188 -6.3125 2.328125 -5.125 2.328125 -3.78125 C 2.328125 -2.425781 2.515625 -1.1875 2.890625 -0.0625 C 3.128906 0.632812 3.59375 1.632812 4.28125 2.9375 L 3.4375 2.9375 C 2.75 1.875 2.320312 1.191406 2.15625 0.890625 C 1.988281 0.597656 1.8125 0.195312 1.625 -0.3125 C 1.363281 -1 1.179688 -1.738281 1.078125 -2.53125 C 1.023438 -2.9375 1 -3.328125 1 -3.703125 C 1 -5.085938 1.21875 -6.320312 1.65625 -7.40625 C 1.925781 -8.09375 2.503906 -9.125 3.390625 -10.5 Z M 4.265625 -10.5 "/>
</symbol>
<symbol overflow="visible" id="0a3d9e79-4649-449b-9ee9-ff8f67976eec">
<path style="stroke:none;" d="M 1.09375 -10.328125 L 2.75 -10.328125 L 7.96875 -1.96875 L 7.96875 -10.328125 L 9.296875 -10.328125 L 9.296875 0 L 7.734375 0 L 2.4375 -8.359375 L 2.4375 0 L 1.09375 0 Z M 5.109375 -10.328125 Z M 5.109375 -10.328125 "/>
</symbol>
<symbol overflow="visible" id="5062f905-da9c-4bfc-9484-eb5a6122f151">
<path style="stroke:none;" d="M 0.921875 -7.53125 L 2.1875 -7.53125 L 2.1875 -6.46875 C 2.476562 -6.832031 2.75 -7.101562 3 -7.28125 C 3.414062 -7.5625 3.890625 -7.703125 4.421875 -7.703125 C 5.015625 -7.703125 5.492188 -7.554688 5.859375 -7.265625 C 6.066406 -7.085938 6.253906 -6.835938 6.421875 -6.515625 C 6.703125 -6.921875 7.03125 -7.21875 7.40625 -7.40625 C 7.789062 -7.601562 8.222656 -7.703125 8.703125 -7.703125 C 9.710938 -7.703125 10.398438 -7.335938 10.765625 -6.609375 C 10.960938 -6.210938 11.0625 -5.679688 11.0625 -5.015625 L 11.0625 0 L 9.75 0 L 9.75 -5.234375 C 9.75 -5.734375 9.625 -6.078125 9.375 -6.265625 C 9.125 -6.453125 8.816406 -6.546875 8.453125 -6.546875 C 7.953125 -6.546875 7.523438 -6.378906 7.171875 -6.046875 C 6.816406 -5.710938 6.640625 -5.15625 6.640625 -4.375 L 6.640625 0 L 5.34375 0 L 5.34375 -4.921875 C 5.34375 -5.429688 5.28125 -5.800781 5.15625 -6.03125 C 4.96875 -6.382812 4.613281 -6.5625 4.09375 -6.5625 C 3.613281 -6.5625 3.175781 -6.375 2.78125 -6 C 2.382812 -5.632812 2.1875 -4.96875 2.1875 -4 L 2.1875 0 L 0.921875 0 Z M 0.921875 -7.53125 "/>
</symbol>
<symbol overflow="visible" id="aacbaf7f-e89e-4513-a818-1af343ec1063">
<path style="stroke:none;" d="M 1.90625 -2 C 1.90625 -1.632812 2.035156 -1.347656 2.296875 -1.140625 C 2.566406 -0.929688 2.882812 -0.828125 3.25 -0.828125 C 3.695312 -0.828125 4.128906 -0.925781 4.546875 -1.125 C 5.242188 -1.46875 5.59375 -2.03125 5.59375 -2.8125 L 5.59375 -3.828125 C 5.4375 -3.734375 5.238281 -3.648438 5 -3.578125 C 4.757812 -3.515625 4.519531 -3.472656 4.28125 -3.453125 L 3.515625 -3.34375 C 3.054688 -3.28125 2.710938 -3.1875 2.484375 -3.0625 C 2.097656 -2.84375 1.90625 -2.488281 1.90625 -2 Z M 4.96875 -4.5625 C 5.257812 -4.601562 5.453125 -4.726562 5.546875 -4.9375 C 5.609375 -5.039062 5.640625 -5.203125 5.640625 -5.421875 C 5.640625 -5.847656 5.484375 -6.15625 5.171875 -6.34375 C 4.867188 -6.539062 4.429688 -6.640625 3.859375 -6.640625 C 3.191406 -6.640625 2.722656 -6.460938 2.453125 -6.109375 C 2.296875 -5.910156 2.191406 -5.617188 2.140625 -5.234375 L 0.96875 -5.234375 C 0.988281 -6.160156 1.285156 -6.804688 1.859375 -7.171875 C 2.441406 -7.535156 3.117188 -7.71875 3.890625 -7.71875 C 4.773438 -7.71875 5.492188 -7.546875 6.046875 -7.203125 C 6.585938 -6.867188 6.859375 -6.347656 6.859375 -5.640625 L 6.859375 -1.296875 C 6.859375 -1.160156 6.882812 -1.050781 6.9375 -0.96875 C 7 -0.894531 7.113281 -0.859375 7.28125 -0.859375 C 7.34375 -0.859375 7.40625 -0.859375 7.46875 -0.859375 C 7.539062 -0.867188 7.617188 -0.882812 7.703125 -0.90625 L 7.703125 0.03125 C 7.503906 0.09375 7.351562 0.128906 7.25 0.140625 C 7.144531 0.148438 7.003906 0.15625 6.828125 0.15625 C 6.390625 0.15625 6.070312 0.00390625 5.875 -0.296875 C 5.769531 -0.460938 5.695312 -0.695312 5.65625 -1 C 5.40625 -0.664062 5.035156 -0.375 4.546875 -0.125 C 4.066406 0.125 3.535156 0.25 2.953125 0.25 C 2.253906 0.25 1.679688 0.0390625 1.234375 -0.375 C 0.796875 -0.800781 0.578125 -1.335938 0.578125 -1.984375 C 0.578125 -2.679688 0.796875 -3.21875 1.234375 -3.59375 C 1.671875 -3.976562 2.242188 -4.21875 2.953125 -4.3125 Z M 3.921875 -7.71875 Z M 3.921875 -7.71875 "/>
</symbol>
<symbol overflow="visible" id="b84d850f-37fb-4f7b-bda4-eec08279b9c3">
<path style="stroke:none;" d="M 0.359375 -1 L 4.828125 -6.40625 L 0.703125 -6.40625 L 0.703125 -7.53125 L 6.53125 -7.53125 L 6.53125 -6.5 L 2.09375 -1.125 L 6.671875 -1.125 L 6.671875 0 L 0.359375 0 Z M 3.625 -7.71875 Z M 3.625 -7.71875 "/>
</symbol>
<symbol overflow="visible" id="ceb8f9d8-c172-4817-aa66-71d17658b2e7">
<path style="stroke:none;" d="M 0.5 2.9375 C 1.25 1.488281 1.726562 0.429688 1.9375 -0.234375 C 2.269531 -1.242188 2.4375 -2.425781 2.4375 -3.78125 C 2.4375 -5.132812 2.242188 -6.375 1.859375 -7.5 C 1.628906 -8.195312 1.171875 -9.195312 0.484375 -10.5 L 1.328125 -10.5 C 2.046875 -9.34375 2.484375 -8.628906 2.640625 -8.359375 C 2.796875 -8.097656 2.960938 -7.726562 3.140625 -7.25 C 3.359375 -6.664062 3.515625 -6.085938 3.609375 -5.515625 C 3.710938 -4.941406 3.765625 -4.390625 3.765625 -3.859375 C 3.765625 -2.472656 3.546875 -1.234375 3.109375 -0.140625 C 2.828125 0.554688 2.25 1.582031 1.375 2.9375 Z M 0.5 2.9375 "/>
</symbol>
</g>
<clipPath id="d40aacba-56b9-470b-a8e3-7485e6783046">
  <path d="M 124.46875 31.929688 L 454 31.929688 L 454 253 L 124.46875 253 Z M 124.46875 31.929688 "/>
</clipPath>
<clipPath id="46190858-18ba-4fa3-8b73-5ef1a931dc6e">
  <path d="M 176 31.929688 L 178 31.929688 L 178 253 L 176 253 Z M 176 31.929688 "/>
</clipPath>
<clipPath id="a0c36c0b-037b-49d8-a5df-372a43bc59de">
  <path d="M 251 31.929688 L 252 31.929688 L 252 253 L 251 253 Z M 251 31.929688 "/>
</clipPath>
<clipPath id="eafe34fb-3816-4d19-a96b-549b7ae96215">
  <path d="M 326 31.929688 L 327 31.929688 L 327 253 L 326 253 Z M 326 31.929688 "/>
</clipPath>
<clipPath id="65b8a52b-065e-4a15-970b-fb7b175a0373">
  <path d="M 400 31.929688 L 402 31.929688 L 402 253 L 400 253 Z M 400 31.929688 "/>
</clipPath>
<clipPath id="b47ae184-ddc3-4a93-b173-d33b3fb459db">
  <path d="M 124.46875 230 L 454.601562 230 L 454.601562 232 L 124.46875 232 Z M 124.46875 230 "/>
</clipPath>
<clipPath id="64195f1b-d334-4e1f-bce0-1d42abe56cbf">
  <path d="M 124.46875 194 L 454.601562 194 L 454.601562 196 L 124.46875 196 Z M 124.46875 194 "/>
</clipPath>
<clipPath id="69efaf21-9729-426a-bda1-510db794a9b9">
  <path d="M 124.46875 159 L 454.601562 159 L 454.601562 161 L 124.46875 161 Z M 124.46875 159 "/>
</clipPath>
<clipPath id="9b63d56c-e9e4-4ac8-8e4e-c4a29d02ac77">
  <path d="M 124.46875 123 L 454.601562 123 L 454.601562 125 L 124.46875 125 Z M 124.46875 123 "/>
</clipPath>
<clipPath id="a2eadcfd-ca06-4fb1-9535-7530d6b113bc">
  <path d="M 124.46875 88 L 454.601562 88 L 454.601562 90 L 124.46875 90 Z M 124.46875 88 "/>
</clipPath>
<clipPath id="c9967adc-931d-4555-aded-5a13be674b68">
  <path d="M 124.46875 52 L 454.601562 52 L 454.601562 54 L 124.46875 54 Z M 124.46875 52 "/>
</clipPath>
<clipPath id="c3cb496b-939e-41fb-bbd8-65873221075a">
  <path d="M 138 31.929688 L 140 31.929688 L 140 253 L 138 253 Z M 138 31.929688 "/>
</clipPath>
<clipPath id="aaed4619-392e-4dc0-a387-9067eebcb71c">
  <path d="M 213 31.929688 L 215 31.929688 L 215 253 L 213 253 Z M 213 31.929688 "/>
</clipPath>
<clipPath id="a0ccec14-8dad-4cb9-a4d6-abd79ca1d381">
  <path d="M 288 31.929688 L 290 31.929688 L 290 253 L 288 253 Z M 288 31.929688 "/>
</clipPath>
<clipPath id="c0d1a413-0ef3-4938-a004-31ecda91e117">
  <path d="M 363 31.929688 L 365 31.929688 L 365 253 L 363 253 Z M 363 31.929688 "/>
</clipPath>
<clipPath id="75b6730c-6fd9-4f41-a307-75f12bad75e5">
  <path d="M 438 31.929688 L 440 31.929688 L 440 253 L 438 253 Z M 438 31.929688 "/>
</clipPath>
</defs>
<g id="da904ba9-e8ff-43e9-b2f4-a878d31163f1">
<rect x="0" y="0" width="468" height="289" style="fill:rgb(100%,100%,100%);fill-opacity:1;stroke:none;"/>
<rect x="0" y="0" width="468" height="289" style="fill:rgb(100%,100%,100%);fill-opacity:1;stroke:none;"/>
<path style="fill:none;stroke-width:1.062992;stroke-linecap:round;stroke-linejoin:round;stroke:rgb(100%,100%,100%);stroke-opacity:1;stroke-miterlimit:10;" d="M 0 289 L 468 289 L 468 0 L 0 0 Z M 0 289 "/>
<g clip-path="url(#d40aacba-56b9-470b-a8e3-7485e6783046)" clip-rule="nonzero">
<path style=" stroke:none;fill-rule:nonzero;fill:rgb(89.803922%,89.803922%,89.803922%);fill-opacity:1;" d="M 124.46875 252.027344 L 453.601562 252.027344 L 453.601562 31.925781 L 124.46875 31.925781 Z M 124.46875 252.027344 "/>
</g>
<g clip-path="url(#46190858-18ba-4fa3-8b73-5ef1a931dc6e)" clip-rule="nonzero">
<path style="fill:none;stroke-width:0.531496;stroke-linecap:butt;stroke-linejoin:round;stroke:rgb(94.901961%,94.901961%,94.901961%);stroke-opacity:1;stroke-miterlimit:10;" d="M 176.832031 252.027344 L 176.832031 31.929688 "/>
</g>
<g clip-path="url(#a0c36c0b-037b-49d8-a5df-372a43bc59de)" clip-rule="nonzero">
<path style="fill:none;stroke-width:0.531496;stroke-linecap:butt;stroke-linejoin:round;stroke:rgb(94.901961%,94.901961%,94.901961%);stroke-opacity:1;stroke-miterlimit:10;" d="M 251.632812 252.027344 L 251.632812 31.929688 "/>
</g>
<g clip-path="url(#eafe34fb-3816-4d19-a96b-549b7ae96215)" clip-rule="nonzero">
<path style="fill:none;stroke-width:0.531496;stroke-linecap:butt;stroke-linejoin:round;stroke:rgb(94.901961%,94.901961%,94.901961%);stroke-opacity:1;stroke-miterlimit:10;" d="M 326.4375 252.027344 L 326.4375 31.929688 "/>
</g>
<g clip-path="url(#65b8a52b-065e-4a15-970b-fb7b175a0373)" clip-rule="nonzero">
<path style="fill:none;stroke-width:0.531496;stroke-linecap:butt;stroke-linejoin:round;stroke:rgb(94.901961%,94.901961%,94.901961%);stroke-opacity:1;stroke-miterlimit:10;" d="M 401.238281 252.027344 L 401.238281 31.929688 "/>
</g>
<g clip-path="url(#b47ae184-ddc3-4a93-b173-d33b3fb459db)" clip-rule="nonzero">
<path style="fill:none;stroke-width:1.062992;stroke-linecap:butt;stroke-linejoin:round;stroke:rgb(100%,100%,100%);stroke-opacity:1;stroke-miterlimit:10;" d="M 124.46875 230.730469 L 453.601562 230.730469 "/>
</g>
<g clip-path="url(#64195f1b-d334-4e1f-bce0-1d42abe56cbf)" clip-rule="nonzero">
<path style="fill:none;stroke-width:1.062992;stroke-linecap:butt;stroke-linejoin:round;stroke:rgb(100%,100%,100%);stroke-opacity:1;stroke-miterlimit:10;" d="M 124.46875 195.230469 L 453.601562 195.230469 "/>
</g>
<g clip-path="url(#69efaf21-9729-426a-bda1-510db794a9b9)" clip-rule="nonzero">
<path style="fill:none;stroke-width:1.062992;stroke-linecap:butt;stroke-linejoin:round;stroke:rgb(100%,100%,100%);stroke-opacity:1;stroke-miterlimit:10;" d="M 124.46875 159.730469 L 453.601562 159.730469 "/>
</g>
<g clip-path="url(#9b63d56c-e9e4-4ac8-8e4e-c4a29d02ac77)" clip-rule="nonzero">
<path style="fill:none;stroke-width:1.062992;stroke-linecap:butt;stroke-linejoin:round;stroke:rgb(100%,100%,100%);stroke-opacity:1;stroke-miterlimit:10;" d="M 124.46875 124.226562 L 453.601562 124.226562 "/>
</g>
<g clip-path="url(#a2eadcfd-ca06-4fb1-9535-7530d6b113bc)" clip-rule="nonzero">
<path style="fill:none;stroke-width:1.062992;stroke-linecap:butt;stroke-linejoin:round;stroke:rgb(100%,100%,100%);stroke-opacity:1;stroke-miterlimit:10;" d="M 124.46875 88.726562 L 453.601562 88.726562 "/>
</g>
<g clip-path="url(#c9967adc-931d-4555-aded-5a13be674b68)" clip-rule="nonzero">
<path style="fill:none;stroke-width:1.062992;stroke-linecap:butt;stroke-linejoin:round;stroke:rgb(100%,100%,100%);stroke-opacity:1;stroke-miterlimit:10;" d="M 124.46875 53.226562 L 453.601562 53.226562 "/>
</g>
<g clip-path="url(#c3cb496b-939e-41fb-bbd8-65873221075a)" clip-rule="nonzero">
<path style="fill:none;stroke-width:1.062992;stroke-linecap:butt;stroke-linejoin:round;stroke:rgb(100%,100%,100%);stroke-opacity:1;stroke-miterlimit:10;" d="M 139.429688 252.027344 L 139.429688 31.929688 "/>
</g>
<g clip-path="url(#aaed4619-392e-4dc0-a387-9067eebcb71c)" clip-rule="nonzero">
<path style="fill:none;stroke-width:1.062992;stroke-linecap:butt;stroke-linejoin:round;stroke:rgb(100%,100%,100%);stroke-opacity:1;stroke-miterlimit:10;" d="M 214.230469 252.027344 L 214.230469 31.929688 "/>
</g>
<g clip-path="url(#a0ccec14-8dad-4cb9-a4d6-abd79ca1d381)" clip-rule="nonzero">
<path style="fill:none;stroke-width:1.062992;stroke-linecap:butt;stroke-linejoin:round;stroke:rgb(100%,100%,100%);stroke-opacity:1;stroke-miterlimit:10;" d="M 289.035156 252.027344 L 289.035156 31.929688 "/>
</g>
<g clip-path="url(#c0d1a413-0ef3-4938-a004-31ecda91e117)" clip-rule="nonzero">
<path style="fill:none;stroke-width:1.062992;stroke-linecap:butt;stroke-linejoin:round;stroke:rgb(100%,100%,100%);stroke-opacity:1;stroke-miterlimit:10;" d="M 363.835938 252.027344 L 363.835938 31.929688 "/>
</g>
<g clip-path="url(#75b6730c-6fd9-4f41-a307-75f12bad75e5)" clip-rule="nonzero">
<path style="fill:none;stroke-width:1.062992;stroke-linecap:butt;stroke-linejoin:round;stroke:rgb(100%,100%,100%);stroke-opacity:1;stroke-miterlimit:10;" d="M 438.640625 252.027344 L 438.640625 31.929688 "/>
</g>
<path style="fill-rule:nonzero;fill:rgb(27.45098%,50.980392%,70.588235%);fill-opacity:1;stroke-width:1.062992;stroke-linecap:butt;stroke-linejoin:round;stroke:rgb(27.45098%,50.980392%,70.588235%);stroke-opacity:1;stroke-miterlimit:10;" d="M 139.429688 246.703125 L 342.246094 246.703125 L 342.246094 214.753906 L 139.429688 214.753906 Z M 139.429688 246.703125 "/>
<path style="fill-rule:nonzero;fill:rgb(27.45098%,50.980392%,70.588235%);fill-opacity:1;stroke-width:1.062992;stroke-linecap:butt;stroke-linejoin:round;stroke:rgb(27.45098%,50.980392%,70.588235%);stroke-opacity:1;stroke-miterlimit:10;" d="M 139.429688 211.203125 L 376.941406 211.203125 L 376.941406 179.253906 L 139.429688 179.253906 Z M 139.429688 211.203125 "/>
<path style="fill-rule:nonzero;fill:rgb(27.45098%,50.980392%,70.588235%);fill-opacity:1;stroke-width:1.062992;stroke-linecap:butt;stroke-linejoin:round;stroke:rgb(27.45098%,50.980392%,70.588235%);stroke-opacity:1;stroke-miterlimit:10;" d="M 139.429688 175.703125 L 245.632812 175.703125 L 245.632812 143.753906 L 139.429688 143.753906 Z M 139.429688 175.703125 "/>
<path style="fill-rule:nonzero;fill:rgb(27.45098%,50.980392%,70.588235%);fill-opacity:1;stroke-width:1.062992;stroke-linecap:butt;stroke-linejoin:round;stroke:rgb(27.45098%,50.980392%,70.588235%);stroke-opacity:1;stroke-miterlimit:10;" d="M 139.429688 140.203125 L 268.757812 140.203125 L 268.757812 108.253906 L 139.429688 108.253906 Z M 139.429688 140.203125 "/>
<path style="fill-rule:nonzero;fill:rgb(27.45098%,50.980392%,70.588235%);fill-opacity:1;stroke-width:1.062992;stroke-linecap:butt;stroke-linejoin:round;stroke:rgb(27.45098%,50.980392%,70.588235%);stroke-opacity:1;stroke-miterlimit:10;" d="M 139.429688 104.703125 L 286.421875 104.703125 L 286.421875 72.753906 L 139.429688 72.753906 Z M 139.429688 104.703125 "/>
<path style="fill:none;stroke-width:1.062992;stroke-linecap:butt;stroke-linejoin:round;stroke:rgb(27.45098%,50.980392%,70.588235%);stroke-opacity:1;stroke-miterlimit:10;" d="M 139.429688 69.203125 L 139.429688 37.253906 Z M 139.429688 69.203125 "/>
<g style="fill:rgb(0%,0%,0%);fill-opacity:1;">
  <use xlink:href="#7efb82fe-2503-47a7-9e38-15070f60df82" x="345.792969" y="235.816406"/>
  <use xlink:href="#331078e1-a04c-4ea4-8ab8-6949c64723f5" x="353.674698" y="235.816406"/>
  <use xlink:href="#ba48ca0b-6886-41ed-9e42-0c9b25c802f6" x="357.612106" y="235.816406"/>
  <use xlink:href="#0c98ddc7-bfff-4852-ba52-8873fa13120a" x="365.493835" y="235.816406"/>
  <use xlink:href="#6dae095b-f692-4675-a08b-422b3101f279" x="373.375565" y="235.816406"/>
</g>
<g style="fill:rgb(0%,0%,0%);fill-opacity:1;">
  <use xlink:href="#7efb82fe-2503-47a7-9e38-15070f60df82" x="272.304688" y="129.3125"/>
  <use xlink:href="#331078e1-a04c-4ea4-8ab8-6949c64723f5" x="280.186417" y="129.3125"/>
  <use xlink:href="#7efb82fe-2503-47a7-9e38-15070f60df82" x="284.123825" y="129.3125"/>
  <use xlink:href="#bcfff32c-2db2-42b4-82a1-cc7f985d38c4" x="292.005554" y="129.3125"/>
  <use xlink:href="#6dae095b-f692-4675-a08b-422b3101f279" x="299.887283" y="129.3125"/>
</g>
<g style="fill:rgb(0%,0%,0%);fill-opacity:1;">
  <use xlink:href="#7efb82fe-2503-47a7-9e38-15070f60df82" x="289.96875" y="93.8125"/>
  <use xlink:href="#331078e1-a04c-4ea4-8ab8-6949c64723f5" x="297.850479" y="93.8125"/>
  <use xlink:href="#7efb82fe-2503-47a7-9e38-15070f60df82" x="301.787888" y="93.8125"/>
  <use xlink:href="#91e4cf8d-7f92-42f2-b6cc-7dcf4edb9b2b" x="309.669617" y="93.8125"/>
  <use xlink:href="#bcfff32c-2db2-42b4-82a1-cc7f985d38c4" x="317.551346" y="93.8125"/>
</g>
<g style="fill:rgb(0%,0%,0%);fill-opacity:1;">
  <use xlink:href="#7efb82fe-2503-47a7-9e38-15070f60df82" x="380.488281" y="200.316406"/>
  <use xlink:href="#331078e1-a04c-4ea4-8ab8-6949c64723f5" x="388.37001" y="200.316406"/>
  <use xlink:href="#ba48ca0b-6886-41ed-9e42-0c9b25c802f6" x="392.307419" y="200.316406"/>
  <use xlink:href="#b140109b-a1f5-4c61-854c-d8e1620a1ac4" x="400.189148" y="200.316406"/>
  <use xlink:href="#91e4cf8d-7f92-42f2-b6cc-7dcf4edb9b2b" x="408.070877" y="200.316406"/>
</g>
<g style="fill:rgb(0%,0%,0%);fill-opacity:1;">
  <use xlink:href="#7efb82fe-2503-47a7-9e38-15070f60df82" x="142.976562" y="58.3125"/>
  <use xlink:href="#331078e1-a04c-4ea4-8ab8-6949c64723f5" x="150.858292" y="58.3125"/>
  <use xlink:href="#7efb82fe-2503-47a7-9e38-15070f60df82" x="154.7957" y="58.3125"/>
  <use xlink:href="#7efb82fe-2503-47a7-9e38-15070f60df82" x="162.677429" y="58.3125"/>
  <use xlink:href="#7efb82fe-2503-47a7-9e38-15070f60df82" x="170.559158" y="58.3125"/>
</g>
<g style="fill:rgb(0%,0%,0%);fill-opacity:1;">
  <use xlink:href="#7efb82fe-2503-47a7-9e38-15070f60df82" x="249.179688" y="164.816406"/>
  <use xlink:href="#331078e1-a04c-4ea4-8ab8-6949c64723f5" x="257.061417" y="164.816406"/>
  <use xlink:href="#7efb82fe-2503-47a7-9e38-15070f60df82" x="260.998825" y="164.816406"/>
  <use xlink:href="#29e9688f-2205-4890-89b6-bbf3314ad40c" x="268.880554" y="164.816406"/>
  <use xlink:href="#ba48ca0b-6886-41ed-9e42-0c9b25c802f6" x="276.762283" y="164.816406"/>
</g>
<g style="fill:rgb(49.803922%,49.803922%,49.803922%);fill-opacity:1;">
  <use xlink:href="#5bb544db-96f4-404a-8914-835ca55a2ffb" x="27.800781" y="234.167969"/>
  <use xlink:href="#681ccb14-e90e-48dd-8c37-472c3a5d7bbb" x="33.661026" y="234.167969"/>
  <use xlink:href="#767c7816-1d76-4fe8-b298-f9d131806c3b" x="38.996613" y="234.167969"/>
  <use xlink:href="#e7c16f18-2d8a-4f81-9f05-6ac0d4c2f2c9" x="44.332199" y="234.167969"/>
  <use xlink:href="#8d1649f8-f870-4e2c-b810-f481fe3efb6d" x="46.99765" y="234.167969"/>
  <use xlink:href="#eccdb6c1-cbde-4524-8cc2-c727908f7cd0" x="53.396606" y="234.167969"/>
  <use xlink:href="#eccdb6c1-cbde-4524-8cc2-c727908f7cd0" x="58.732193" y="234.167969"/>
  <use xlink:href="#8c520d23-90b6-4da6-a55f-b4bcf81e1aec" x="64.06778" y="234.167969"/>
  <use xlink:href="#e7c16f18-2d8a-4f81-9f05-6ac0d4c2f2c9" x="68.864655" y="234.167969"/>
  <use xlink:href="#eccdb6c1-cbde-4524-8cc2-c727908f7cd0" x="71.530106" y="234.167969"/>
  <use xlink:href="#dee0faf0-bc50-495d-a736-77eaff5cdd66" x="76.865692" y="234.167969"/>
  <use xlink:href="#e7c16f18-2d8a-4f81-9f05-6ac0d4c2f2c9" x="79.531143" y="234.167969"/>
  <use xlink:href="#1186fde3-8791-4755-957b-843407b10b5d" x="82.196594" y="234.167969"/>
  <use xlink:href="#eccdb6c1-cbde-4524-8cc2-c727908f7cd0" x="90.188263" y="234.167969"/>
  <use xlink:href="#c3bcca78-6c9b-4e91-b35a-33835924fb8d" x="95.523849" y="234.167969"/>
  <use xlink:href="#6429004c-0197-421a-a839-260abecd64bb" x="98.718643" y="234.167969"/>
  <use xlink:href="#eccdb6c1-cbde-4524-8cc2-c727908f7cd0" x="106.710312" y="234.167969"/>
  <use xlink:href="#4984f0e0-cfe3-4489-a0f0-13276ed80271" x="112.045898" y="234.167969"/>
</g>
<g style="fill:rgb(49.803922%,49.803922%,49.803922%);fill-opacity:1;">
  <use xlink:href="#5bb544db-96f4-404a-8914-835ca55a2ffb" x="37.925781" y="198.667969"/>
  <use xlink:href="#681ccb14-e90e-48dd-8c37-472c3a5d7bbb" x="43.786026" y="198.667969"/>
  <use xlink:href="#767c7816-1d76-4fe8-b298-f9d131806c3b" x="49.121613" y="198.667969"/>
  <use xlink:href="#e7c16f18-2d8a-4f81-9f05-6ac0d4c2f2c9" x="54.457199" y="198.667969"/>
  <use xlink:href="#d962b146-22cd-4a97-afb8-ba143c2c8d65" x="57.12265" y="198.667969"/>
  <use xlink:href="#681ccb14-e90e-48dd-8c37-472c3a5d7bbb" x="64.050949" y="198.667969"/>
  <use xlink:href="#f938f65e-6527-4cc3-b920-b8aaed245f39" x="69.386536" y="198.667969"/>
  <use xlink:href="#6429004c-0197-421a-a839-260abecd64bb" x="74.722122" y="198.667969"/>
  <use xlink:href="#6429004c-0197-421a-a839-260abecd64bb" x="82.713791" y="198.667969"/>
  <use xlink:href="#f938f65e-6527-4cc3-b920-b8aaed245f39" x="90.70546" y="198.667969"/>
  <use xlink:href="#940335a1-fcb7-40e9-aa9e-8fda0fad0e13" x="96.041046" y="198.667969"/>
  <use xlink:href="#f938f65e-6527-4cc3-b920-b8aaed245f39" x="101.376633" y="198.667969"/>
  <use xlink:href="#88fb6af2-1e49-4884-aff0-c1782abacad6" x="106.712219" y="198.667969"/>
  <use xlink:href="#f938f65e-6527-4cc3-b920-b8aaed245f39" x="112.047806" y="198.667969"/>
</g>
<g style="fill:rgb(49.803922%,49.803922%,49.803922%);fill-opacity:1;">
  <use xlink:href="#5bb544db-96f4-404a-8914-835ca55a2ffb" x="54.996094" y="163.167969"/>
  <use xlink:href="#681ccb14-e90e-48dd-8c37-472c3a5d7bbb" x="60.856339" y="163.167969"/>
  <use xlink:href="#767c7816-1d76-4fe8-b298-f9d131806c3b" x="66.191925" y="163.167969"/>
  <use xlink:href="#e7c16f18-2d8a-4f81-9f05-6ac0d4c2f2c9" x="71.527512" y="163.167969"/>
  <use xlink:href="#45cf7c4c-adf3-4f0b-a01b-da4433adbbd9" x="74.192963" y="163.167969"/>
  <use xlink:href="#eccdb6c1-cbde-4524-8cc2-c727908f7cd0" x="81.121262" y="163.167969"/>
  <use xlink:href="#f6114ba1-bae2-4951-b960-a874480584bf" x="86.456848" y="163.167969"/>
  <use xlink:href="#1abc5fac-5a41-4fea-8068-17f0d6ecf43a" x="88.588272" y="163.167969"/>
  <use xlink:href="#e7c16f18-2d8a-4f81-9f05-6ac0d4c2f2c9" x="93.385147" y="163.167969"/>
  <use xlink:href="#8d1649f8-f870-4e2c-b810-f481fe3efb6d" x="96.050598" y="163.167969"/>
  <use xlink:href="#b41a6cd3-b7b7-4b5c-8552-b1c3485c137c" x="102.449554" y="163.167969"/>
  <use xlink:href="#497ba663-487c-4e82-b44a-3d562039042a" x="104.580978" y="163.167969"/>
  <use xlink:href="#f6114ba1-bae2-4951-b960-a874480584bf" x="109.916565" y="163.167969"/>
  <use xlink:href="#767c7816-1d76-4fe8-b298-f9d131806c3b" x="112.047989" y="163.167969"/>
</g>
<g style="fill:rgb(49.803922%,49.803922%,49.803922%);fill-opacity:1;">
  <use xlink:href="#5bb544db-96f4-404a-8914-835ca55a2ffb" x="23.011719" y="127.664062"/>
  <use xlink:href="#681ccb14-e90e-48dd-8c37-472c3a5d7bbb" x="28.871964" y="127.664062"/>
  <use xlink:href="#767c7816-1d76-4fe8-b298-f9d131806c3b" x="34.20755" y="127.664062"/>
  <use xlink:href="#e7c16f18-2d8a-4f81-9f05-6ac0d4c2f2c9" x="39.543137" y="127.664062"/>
  <use xlink:href="#80339273-3717-43a0-b9d0-e5b49f16987e" x="42.208588" y="127.664062"/>
  <use xlink:href="#767c7816-1d76-4fe8-b298-f9d131806c3b" x="47.005463" y="127.664062"/>
  <use xlink:href="#750c6e86-19ce-457d-bc66-bd0d6f316f83" x="52.341049" y="127.664062"/>
  <use xlink:href="#b41a6cd3-b7b7-4b5c-8552-b1c3485c137c" x="59.269348" y="127.664062"/>
  <use xlink:href="#5c8397bd-783a-49f0-9259-e5d9c689e482" x="61.400772" y="127.664062"/>
  <use xlink:href="#681ccb14-e90e-48dd-8c37-472c3a5d7bbb" x="66.197647" y="127.664062"/>
  <use xlink:href="#e7c16f18-2d8a-4f81-9f05-6ac0d4c2f2c9" x="71.533234" y="127.664062"/>
  <use xlink:href="#8dd3b575-8253-421e-a993-0b957818b248" x="74.198685" y="127.664062"/>
  <use xlink:href="#2a42e5da-dcda-4fc6-af58-5c293775622c" x="80.597641" y="127.664062"/>
  <use xlink:href="#c3bcca78-6c9b-4e91-b35a-33835924fb8d" x="85.394516" y="127.664062"/>
  <use xlink:href="#b41a6cd3-b7b7-4b5c-8552-b1c3485c137c" x="88.58931" y="127.664062"/>
  <use xlink:href="#940335a1-fcb7-40e9-aa9e-8fda0fad0e13" x="90.720734" y="127.664062"/>
  <use xlink:href="#051daabc-d951-4dca-928b-1727bd5b9de5" x="96.05632" y="127.664062"/>
  <use xlink:href="#9a6fec84-905e-4ba9-89e4-654c4013af9d" x="98.721771" y="127.664062"/>
  <use xlink:href="#c3bcca78-6c9b-4e91-b35a-33835924fb8d" x="104.057358" y="127.664062"/>
  <use xlink:href="#767c7816-1d76-4fe8-b298-f9d131806c3b" x="107.252151" y="127.664062"/>
  <use xlink:href="#5c8397bd-783a-49f0-9259-e5d9c689e482" x="112.587738" y="127.664062"/>
</g>
<g style="fill:rgb(49.803922%,49.803922%,49.803922%);fill-opacity:1;">
  <use xlink:href="#5bb544db-96f4-404a-8914-835ca55a2ffb" x="72.585938" y="92.164062"/>
  <use xlink:href="#681ccb14-e90e-48dd-8c37-472c3a5d7bbb" x="78.446182" y="92.164062"/>
  <use xlink:href="#767c7816-1d76-4fe8-b298-f9d131806c3b" x="83.781769" y="92.164062"/>
  <use xlink:href="#e7c16f18-2d8a-4f81-9f05-6ac0d4c2f2c9" x="89.117355" y="92.164062"/>
  <use xlink:href="#693ad499-a892-4535-b925-d3ca57069280" x="91.782806" y="92.164062"/>
  <use xlink:href="#eccdb6c1-cbde-4524-8cc2-c727908f7cd0" x="98.181763" y="92.164062"/>
  <use xlink:href="#c3bcca78-6c9b-4e91-b35a-33835924fb8d" x="103.517349" y="92.164062"/>
  <use xlink:href="#f938f65e-6527-4cc3-b920-b8aaed245f39" x="106.712143" y="92.164062"/>
  <use xlink:href="#4984f0e0-cfe3-4489-a0f0-13276ed80271" x="112.047729" y="92.164062"/>
</g>
<g style="fill:rgb(49.803922%,49.803922%,49.803922%);fill-opacity:1;">
  <use xlink:href="#5bb544db-96f4-404a-8914-835ca55a2ffb" x="70.984375" y="56.664062"/>
  <use xlink:href="#681ccb14-e90e-48dd-8c37-472c3a5d7bbb" x="76.84462" y="56.664062"/>
  <use xlink:href="#767c7816-1d76-4fe8-b298-f9d131806c3b" x="82.180206" y="56.664062"/>
  <use xlink:href="#e7c16f18-2d8a-4f81-9f05-6ac0d4c2f2c9" x="87.515793" y="56.664062"/>
  <use xlink:href="#3fe5be65-4299-494b-9005-c9fa157d20b2" x="90.181244" y="56.664062"/>
  <use xlink:href="#767c7816-1d76-4fe8-b298-f9d131806c3b" x="96.5802" y="56.664062"/>
  <use xlink:href="#88fb6af2-1e49-4884-aff0-c1782abacad6" x="101.915787" y="56.664062"/>
  <use xlink:href="#f938f65e-6527-4cc3-b920-b8aaed245f39" x="107.251373" y="56.664062"/>
  <use xlink:href="#5c8397bd-783a-49f0-9259-e5d9c689e482" x="112.58696" y="56.664062"/>
</g>
<path style="fill:none;stroke-width:1.062992;stroke-linecap:butt;stroke-linejoin:round;stroke:rgb(49.803922%,49.803922%,49.803922%);stroke-opacity:1;stroke-miterlimit:10;" d="M 120.21875 230.730469 L 124.46875 230.730469 "/>
<path style="fill:none;stroke-width:1.062992;stroke-linecap:butt;stroke-linejoin:round;stroke:rgb(49.803922%,49.803922%,49.803922%);stroke-opacity:1;stroke-miterlimit:10;" d="M 120.21875 195.230469 L 124.46875 195.230469 "/>
<path style="fill:none;stroke-width:1.062992;stroke-linecap:butt;stroke-linejoin:round;stroke:rgb(49.803922%,49.803922%,49.803922%);stroke-opacity:1;stroke-miterlimit:10;" d="M 120.21875 159.730469 L 124.46875 159.730469 "/>
<path style="fill:none;stroke-width:1.062992;stroke-linecap:butt;stroke-linejoin:round;stroke:rgb(49.803922%,49.803922%,49.803922%);stroke-opacity:1;stroke-miterlimit:10;" d="M 120.21875 124.226562 L 124.46875 124.226562 "/>
<path style="fill:none;stroke-width:1.062992;stroke-linecap:butt;stroke-linejoin:round;stroke:rgb(49.803922%,49.803922%,49.803922%);stroke-opacity:1;stroke-miterlimit:10;" d="M 120.21875 88.726562 L 124.46875 88.726562 "/>
<path style="fill:none;stroke-width:1.062992;stroke-linecap:butt;stroke-linejoin:round;stroke:rgb(49.803922%,49.803922%,49.803922%);stroke-opacity:1;stroke-miterlimit:10;" d="M 120.21875 53.226562 L 124.46875 53.226562 "/>
<path style="fill:none;stroke-width:1.062992;stroke-linecap:butt;stroke-linejoin:round;stroke:rgb(49.803922%,49.803922%,49.803922%);stroke-opacity:1;stroke-miterlimit:10;" d="M 139.429688 256.28125 L 139.429688 252.027344 "/>
<path style="fill:none;stroke-width:1.062992;stroke-linecap:butt;stroke-linejoin:round;stroke:rgb(49.803922%,49.803922%,49.803922%);stroke-opacity:1;stroke-miterlimit:10;" d="M 214.230469 256.28125 L 214.230469 252.027344 "/>
<path style="fill:none;stroke-width:1.062992;stroke-linecap:butt;stroke-linejoin:round;stroke:rgb(49.803922%,49.803922%,49.803922%);stroke-opacity:1;stroke-miterlimit:10;" d="M 289.035156 256.28125 L 289.035156 252.027344 "/>
<path style="fill:none;stroke-width:1.062992;stroke-linecap:butt;stroke-linejoin:round;stroke:rgb(49.803922%,49.803922%,49.803922%);stroke-opacity:1;stroke-miterlimit:10;" d="M 363.835938 256.28125 L 363.835938 252.027344 "/>
<path style="fill:none;stroke-width:1.062992;stroke-linecap:butt;stroke-linejoin:round;stroke:rgb(49.803922%,49.803922%,49.803922%);stroke-opacity:1;stroke-miterlimit:10;" d="M 438.640625 256.28125 L 438.640625 252.027344 "/>
<g style="fill:rgb(49.803922%,49.803922%,49.803922%);fill-opacity:1;">
  <use xlink:href="#909bfac9-403c-4dc4-abcc-7522bca5a93c" x="130.09375" y="265.992188"/>
  <use xlink:href="#df978cb0-ca66-462d-a426-8d758da06692" x="135.429337" y="265.992188"/>
  <use xlink:href="#909bfac9-403c-4dc4-abcc-7522bca5a93c" x="138.094788" y="265.992188"/>
  <use xlink:href="#909bfac9-403c-4dc4-abcc-7522bca5a93c" x="143.430374" y="265.992188"/>
</g>
<g style="fill:rgb(49.803922%,49.803922%,49.803922%);fill-opacity:1;">
  <use xlink:href="#909bfac9-403c-4dc4-abcc-7522bca5a93c" x="204.894531" y="265.992188"/>
  <use xlink:href="#df978cb0-ca66-462d-a426-8d758da06692" x="210.230118" y="265.992188"/>
  <use xlink:href="#909bfac9-403c-4dc4-abcc-7522bca5a93c" x="212.895569" y="265.992188"/>
  <use xlink:href="#3a733ba5-ec98-46f7-8688-19e676d4664c" x="218.231155" y="265.992188"/>
</g>
<g style="fill:rgb(49.803922%,49.803922%,49.803922%);fill-opacity:1;">
  <use xlink:href="#909bfac9-403c-4dc4-abcc-7522bca5a93c" x="279.699219" y="265.992188"/>
  <use xlink:href="#df978cb0-ca66-462d-a426-8d758da06692" x="285.034805" y="265.992188"/>
  <use xlink:href="#e9c6fd6f-0e9b-44a7-b818-2a3d8b55829c" x="287.700256" y="265.992188"/>
  <use xlink:href="#909bfac9-403c-4dc4-abcc-7522bca5a93c" x="293.035843" y="265.992188"/>
</g>
<g style="fill:rgb(49.803922%,49.803922%,49.803922%);fill-opacity:1;">
  <use xlink:href="#909bfac9-403c-4dc4-abcc-7522bca5a93c" x="354.5" y="265.992188"/>
  <use xlink:href="#df978cb0-ca66-462d-a426-8d758da06692" x="359.835587" y="265.992188"/>
  <use xlink:href="#e9c6fd6f-0e9b-44a7-b818-2a3d8b55829c" x="362.501038" y="265.992188"/>
  <use xlink:href="#3a733ba5-ec98-46f7-8688-19e676d4664c" x="367.836624" y="265.992188"/>
</g>
<g style="fill:rgb(49.803922%,49.803922%,49.803922%);fill-opacity:1;">
  <use xlink:href="#909bfac9-403c-4dc4-abcc-7522bca5a93c" x="429.304688" y="265.992188"/>
  <use xlink:href="#df978cb0-ca66-462d-a426-8d758da06692" x="434.640274" y="265.992188"/>
  <use xlink:href="#04cb0d51-5e82-4f97-94e4-3e73f0477bc0" x="437.305725" y="265.992188"/>
  <use xlink:href="#909bfac9-403c-4dc4-abcc-7522bca5a93c" x="442.641312" y="265.992188"/>
</g>
<g style="fill:rgb(0%,0%,0%);fill-opacity:1;">
  <use xlink:href="#9d460fb3-26de-491d-9aa0-c51265957133" x="150.121094" y="28.328125"/>
  <use xlink:href="#6c81e28a-dfe4-4247-a594-d917e486d796" x="159.72995" y="28.328125"/>
  <use xlink:href="#7d2eae7f-40cc-4d0e-9993-97660236080e" x="167.74202" y="28.328125"/>
  <use xlink:href="#36dd1885-6b08-4486-96a7-366cb96b9047" x="175.754089" y="28.328125"/>
  <use xlink:href="#6c81e28a-dfe4-4247-a594-d917e486d796" x="179.756607" y="28.328125"/>
  <use xlink:href="#7d2eae7f-40cc-4d0e-9993-97660236080e" x="187.768677" y="28.328125"/>
  <use xlink:href="#75a40da4-ffae-4037-ab64-1c824bb271ae" x="195.780746" y="28.328125"/>
  <use xlink:href="#6c81e28a-dfe4-4247-a594-d917e486d796" x="202.983871" y="28.328125"/>
  <use xlink:href="#07a13d30-c9ec-4b5a-824d-cf4679ae9d03" x="210.995941" y="28.328125"/>
  <use xlink:href="#e28aa769-5d27-4607-b815-0779b41c09f7" x="218.199066" y="28.328125"/>
  <use xlink:href="#c4464821-0860-4e1e-966a-87161922a987" x="222.201584" y="28.328125"/>
  <use xlink:href="#c52c59d6-3362-4900-aca0-e62b1d7cadb9" x="232.605316" y="28.328125"/>
  <use xlink:href="#36dd1885-6b08-4486-96a7-366cb96b9047" x="235.805923" y="28.328125"/>
  <use xlink:href="#9de8810d-ff78-4608-a645-d8ed162c7cd3" x="239.808441" y="28.328125"/>
  <use xlink:href="#e28aa769-5d27-4607-b815-0779b41c09f7" x="247.820511" y="28.328125"/>
  <use xlink:href="#d94611bd-9126-4e9f-82d4-ef6ff14f2dcb" x="251.823029" y="28.328125"/>
  <use xlink:href="#c52c59d6-3362-4900-aca0-e62b1d7cadb9" x="261.431885" y="28.328125"/>
  <use xlink:href="#11c6c10f-9b25-42e3-8ddf-212e9b909802" x="264.632492" y="28.328125"/>
  <use xlink:href="#b5a7e967-ae56-4b98-a8ba-a0adc393040f" x="272.644562" y="28.328125"/>
  <use xlink:href="#6c81e28a-dfe4-4247-a594-d917e486d796" x="275.845169" y="28.328125"/>
  <use xlink:href="#7d2eae7f-40cc-4d0e-9993-97660236080e" x="283.857239" y="28.328125"/>
  <use xlink:href="#36dd1885-6b08-4486-96a7-366cb96b9047" x="291.869308" y="28.328125"/>
  <use xlink:href="#e28aa769-5d27-4607-b815-0779b41c09f7" x="295.871826" y="28.328125"/>
  <use xlink:href="#da52efa3-83a1-48e9-848c-cd12c229df44" x="299.874344" y="28.328125"/>
  <use xlink:href="#11c6c10f-9b25-42e3-8ddf-212e9b909802" x="313.471649" y="28.328125"/>
  <use xlink:href="#27fb5a6e-541f-4343-9eab-4655514dea77" x="321.483719" y="28.328125"/>
  <use xlink:href="#d956c0d8-b376-4ea0-8366-99f176c634d7" x="326.281113" y="28.328125"/>
  <use xlink:href="#07a13d30-c9ec-4b5a-824d-cf4679ae9d03" x="334.293182" y="28.328125"/>
  <use xlink:href="#e28aa769-5d27-4607-b815-0779b41c09f7" x="341.496307" y="28.328125"/>
  <use xlink:href="#abcbf6f3-3746-4fdb-84bf-aef45212b34d" x="345.498825" y="28.328125"/>
  <use xlink:href="#0a3d9e79-4649-449b-9ee9-ff8f67976eec" x="350.296219" y="28.328125"/>
  <use xlink:href="#11c6c10f-9b25-42e3-8ddf-212e9b909802" x="360.699951" y="28.328125"/>
  <use xlink:href="#27fb5a6e-541f-4343-9eab-4655514dea77" x="368.712021" y="28.328125"/>
  <use xlink:href="#5062f905-da9c-4bfc-9484-eb5a6122f151" x="373.509415" y="28.328125"/>
  <use xlink:href="#aacbaf7f-e89e-4513-a818-1af343ec1063" x="385.509933" y="28.328125"/>
  <use xlink:href="#b5a7e967-ae56-4b98-a8ba-a0adc393040f" x="393.522003" y="28.328125"/>
  <use xlink:href="#c52c59d6-3362-4900-aca0-e62b1d7cadb9" x="396.72261" y="28.328125"/>
  <use xlink:href="#b84d850f-37fb-4f7b-bda4-eec08279b9c3" x="399.923218" y="28.328125"/>
  <use xlink:href="#6c81e28a-dfe4-4247-a594-d917e486d796" x="407.126343" y="28.328125"/>
  <use xlink:href="#d956c0d8-b376-4ea0-8366-99f176c634d7" x="415.138412" y="28.328125"/>
  <use xlink:href="#ceb8f9d8-c172-4817-aa66-71d17658b2e7" x="423.150482" y="28.328125"/>
</g>
</g>
</svg>
